<svg xmlns="http://www.w3.org/2000/svg" version="1.0" width="1200" height="429" viewBox="0 0 12000 4290"><defs><path id="b" d="M758.5227 2113.6364h5420.4547v426.1364H758.5227z"/><path id="a" d="M187.5 835.2273h6213.0684v1159.0909H187.5z"/></defs><path d="M0 2145V0h12000v4290H0V2145z" fill="#0e0b13"/><path d="M0 2145V0h12000v4290H0V2145zm8852-733c12-32 12-44-2-93-8-32-23-66-32-76-10-11-18-25-18-31 0-7-19-26-42-43-41-29-47-31-111-26-98 8-151 48-207 156-26 49-23 78 12 104 27 20 78 18 78-4s71-108 102-123c30-15 31-15 64 18 26 26 34 42 34 70 0 51 18 84 49 88 44 6 58-2 73-40zm-936-40c12-9 24-28 27-41 8-32-11-132-29-152-8-8-14-20-14-26 0-5-10-19-22-30-71-64-156-68-235-10-80 59-113 106-120 173-4 39 24 67 63 62 22-2 34-15 59-62 23-42 43-65 72-82l41-22 27 28c15 15 27 32 27 37 0 4 2 13 4 18 1 6 8 28 14 50 11 34 43 75 60 75 3 0 15-8 26-18z" fill="#9e302c"/><path d="M0 2145V0h12000v4290H0V2145zm8285 969c8-4 22-19 30-35 15-29 49-32 38-3-3 8-1 14 5 14 5 0 12-7 16-15 8-21 26-19 26 4 0 19 25 35 40 26 19-12 1-40-31-48s-33-10-15-23c18-12 18-15 2-39-18-27-36-33-36-12 0 24-80 99-106 101-13 0-24 7-24 14s4 11 9 7c5-3 12-1 16 5 7 12 8 12 30 4zm231-91c-10-10-19 5-10 18 6 11 8 11 12 0 2-7 1-15-2-18zm-53-43c3-12 1-17-5-14-5 3-16-2-23-12-17-23-19-4-4 30 13 28 24 27 32-4zm87 26c0-2-7-9-15-16-12-10-15-10-15 4 0 9 7 16 15 16s15-2 15-4zm-1026-21c-25-19-40-19-24 0 7 8 20 15 28 15 13 0 12-3-4-15zm765-39c-3-3-11 5-18 17-13 21-12 21 5 5 10-10 16-20 13-22zm57 18c-3-9-6-20-6-25s-5-9-12-9c-6 0-8 3-5 6 3 4 2 15-4 25-8 16-6 19 12 19 15 0 19-4 15-16zm-802-18c-3-7-16-13-29-13-14 0-22 4-19 9s12 7 20 4 14-1 14 4c0 6 4 10 10 10 5 0 7-6 4-14zm844-14c15-15 17-24 8-43l-10-24-4 30c-2 16-11 35-20 42-11 8-12 12-4 13 6 0 20-8 30-18zm-1062-39c-2-14-12-34-22-42-27-22-64-88-59-104 8-20-11-41-30-33-13 5-16 13-10 34 3 15 7 38 7 52s3 19 5 13c5-13 53 37 53 55 0 16 41 63 50 57 5-3 7-17 6-32zm1264 17c0-9-31-23-37-16-3 3 1 11 8 19 14 15 29 13 29-3zm-1210 0c0-5-8-10-17-10-15 0-16 2-3 10 19 12 20 12 20 0zm1080-74c0-3-4-8-10-11-5-3-10-1-10 4 0 6 5 11 10 11 6 0 10-2 10-4zm167-13c-4-3-10-3-14 0-3 4 0 7 7 7s10-3 7-7zm-1452-72c7-12-12-24-25-16-11 7-4 25 10 25 5 0 11-4 15-9zm1677-1339c12-32 12-44-2-93-8-32-23-66-32-76-10-11-18-25-18-31 0-7-19-26-42-43-41-29-47-31-111-26-98 8-151 48-207 156-26 49-23 78 12 104 27 20 78 18 78-4s71-108 102-123c30-15 31-15 64 18 26 26 34 42 34 70 0 51 18 84 49 88 44 6 58-2 73-40zm-936-40c12-9 24-28 27-41 8-32-11-132-29-152-8-8-14-20-14-26 0-5-10-19-22-30-71-64-156-68-235-10-80 59-113 106-120 173-4 39 24 67 63 62 22-2 34-15 59-62 23-42 43-65 72-82l41-22 27 28c15 15 27 32 27 37 0 4 2 13 4 18 1 6 8 28 14 50 11 34 43 75 60 75 3 0 15-8 26-18z" fill="#564b5d"/><g fill="#5c5162"><path d="M0 2145V0h12000v4290H0V2145zm10231 1906c-11-15-18-30-16-33 8-8 65 4 65 14 0 5 10 8 23 7 12-2 27 0 34 4s24 0 37-8c24-16 24-18 10-41-14-21-14-26 0-54 15-30 14-31-7-24-12 4-26 7-32 6-5-1-37-3-71-4-56-3-61-2-56 16 4 13 1 17-9 14-8-3-14-10-14-16 0-7-4-11-10-9-16 3-13 89 4 117 18 29 31 40 49 40 9 0 7-9-7-29zm66 13c-3-3-12-4-19-1-8 3-5 6 6 6 11 1 17-2 13-5zm-113-19c-4-8-11-12-16-9-6 4-5 10 3 15 19 12 19 11 13-6zm-1167-32c-4-3-7 0-7 7s3 10 7 7c3-4 3-10 0-14zm104-9c7-9 12-30 10-46-1-16 3-36 10-44 8-10 9-18 2-25-12-12-139-15-172-4-20 6-20 6 1 30 23 26 40 25 32-3-5-14-4-14 4-3 9 12 13 12 26 2 20-17 21-7 1 12-13 13-10 16 18 28 18 7 38 19 46 27 11 11 11 15-5 27s-17 14-3 15c9 0 23-7 30-16zm-131-16c0-6 8-17 18-25 9-8 12-12 5-9-6 4-14 2-18-4-9-14-42-13-48 3-2 6 3 22 12 33 16 22 31 23 31 2zm77-14c-9-9-28 6-21 18 4 6 10 6 17-1 6-6 8-13 4-17zm1376-15c10-18 16-33 15-34-2-1-18 9-37 22-26 17-29 23-15 23 16 0 17 2 4 10-13 9-13 10 0 10 8 0 23-14 33-31zm-2315 6c-2-1-21-5-43-8l-40-6 30 13c16 8 35 11 43 9 7-3 12-7 10-8zm1050-21c7-14 8-23 2-19-5 3-10 1-10-4 0-6 7-11 15-11s15-7 15-15c0-26-29-16-45 14-14 28-12 61 4 61 4 0 13-12 19-26zm-993 0c10-11 15-29 13-52l-3-36h-53c-53-1-73 6-52 19 5 3 10 2 10-3 0-6 9-8 20-5 10 3 18 10 17 17-1 6 6 10 17 8 15-3 16-1 5 11-10 11-18 12-31 4-9-6-14-16-12-22 3-5-2-1-11 10-21 26-15 51 13 48 12-2 22 2 22 7 0 16 27 12 45-6zm-115-18c0-8-7-13-16-12-25 2-28-21-4-27 11-3 20-10 20-17 0-13-41-3-51 12-4 6-9 5-12-3s-6-5-6 8c-1 12-7 24-13 27-7 3-4 4 8 1s27 1 34 10c16 19 40 20 40 1zm-105-56c3-5-1-10-10-10s-13 5-10 10c3 6 8 10 10 10s7-4 10-10zm1275-480c0-5 19-21 41-36 23-14 44-34 46-45 4-13 11-18 22-14 9 3 31 1 49-5 22-6 76-4 165 6 72 8 139 11 147 8 16-7 26-10 48-12 7-1 10-7 6-13-4-8-9-7-15 2-6 10-9 7-9-10 0-18 4-22 20-18 20 5 24-4 21-43 0-8 4-22 9-30 9-13 12-12 25 4 13 17 15 17 15 3 0-9-9-21-20-27-15-8-18-17-14-39 5-23 2-32-16-41-18-10-20-14-9-21 8-5 17-9 21-9 7 0 17 26 18 45 1 6 12 16 26 23 22 12 27 11 38-4 10-13 15-14 21-4 4 7 2 16-6 21-9 6-4 7 16 3 17-3 38-6 48-6 9 1 17-3 17-9 0-5-4-9-10-9-5 0-7-7-4-14 5-12-5-14-55-11-63 4-85-6-54-24 17-10 17-10 1-11-10 0-18-5-18-11s9-9 20-6c24 6 24 7 5-29-12-23-20-28-44-26-25 3-30 0-28-18 1-17 7-21 24-17 24 4 33-9 33-50 0-18 4-24 15-19 8 3 15 2 15-2 0-17-25-32-52-32-30 0-38-17-13-26 8-4 15-13 15-21s5-11 10-8c6 4 8 16 4 27-5 18-3 20 12 13 11-4 27-8 36-9 9 0 14-5 11-10-4-5 1-7 9-3 14 5 15 1 7-26-12-41-12-40 11-34 16 4 18 2 10-13-5-10-10-33-11-51-3-45-8-52-25-38-19 16-18 29 3 29 13 0 14 3 5 12-7 7-12 20-12 30s-6 18-14 18c-9 0-12-7-9-19 3-11-3-41-13-67-14-37-15-50-6-65 10-16 9-19-3-19-8 0-15-5-15-11 0-7 10-9 25-7 20 4 25 1 24-16 0-11-3-15-6-8-6 14-53 17-53 2 0-5 10-10 23-11 12 0 17-3 11-5-6-3-9-17-8-32 2-15 2-22-2-15-3 7-12 9-20 6s-21 0-29 7c-12 10-15 10-15-1 0-10-2-11-12 0-11 10-10 15 5 25 9 7 17 17 17 21s-6 2-14-4c-17-15-30 1-22 27 3 9 1 24-4 32-7 11-10 11-10 2s-7-11-19-7c-16 5-19 1-18-27 2-30 0-33-30-33-34 0-44 11-18 21 8 4 12 10 9 16-3 5 2 19 13 30 13 15 15 22 6 25-27 9-12 22 18 16 25-5 31-3 27 8-3 8-14 14-25 14s-26 5-34 12-25 10-38 6l-22-6 22-11c25-12 37-36 19-36-6 0-18 7-27 15-8 8-19 13-24 10-5-4-9-2-9 4 0 15 29 41 46 41 12 0 12 4 4 20-6 11-9 24-6 28 2 4-4 9-15 9-16 2-18-3-13-24 6-22 4-24-15-18-13 4-21 2-21-5 0-6 5-8 10-5 13 8 13-5 0-25-8-12-10-12-10-1s-3 11-15 1c-17-14-21-35-4-24 6 3 15 1 19-6 9-15 1-50-12-50-5 0-8-18-6-40 1-27 5-37 12-30 14 14 29 13 20-1-5-8 0-10 17-6 42 11 75-34 39-53-11-6-17-16-14-23 2-7-2-21-11-32-15-20-15-20-30-1-16 21-20 13-15-29 2-24 27-52 37-42 3 4-2 13-12 21-13 9-15 15-6 20 7 5 13 6 15 5 36-55 45-79 21-59-17 14-21 0-4-17 12-12 37-7 57 14 7 7 23 13 35 14 12 0 17 3 11 5-7 3-9 14-6 26 4 17 2 19-14 11-25-12-64-11-64 2 0 5 15 8 33 7l32-3-24 17c-23 16-23 18-6 31 27 19 51 18 35-2-9-11-9-15-1-15 7 0 9-5 5-12-5-8-2-9 9-5 10 3 17 2 17-3 0-6 5-10 11-10s9 7 5 15c-3 8-2 15 3 15s11-9 14-21c4-15 0-23-14-26-10-3-19-10-19-15s5-6 10-3c6 3 10 4 10 1 0-5-56-38-70-41-3-1-16-6-30-12s-36-9-50-7c-14 1-29 3-35 3-5 1-4 5 4 10 11 7 6 17-22 45-37 36-55 39-85 9-11-11-11-13 2-13 8 0 13-6 10-13-3-8 7-17 23-23 27-10 27-10 6-16-17-4-31 2-53 22-42 39-38 55 15 70 46 13 64 34 22 26-20-3-23 0-24 30-1 21 4 34 11 34s21 9 31 20c17 19 17 20 0 26-17 7-17 8 1 22 13 10 15 16 7 19-7 3-13 11-13 18s-7 15-15 19c-8 3-12 12-9 21 5 11-1 15-21 15-14 0-24 4-21 9s-8 14-24 20c-31 10-38 25-18 37 7 4 8 3 4-4s3-14 18-18c13-3 27-13 31-22 6-16 8-15 20 1 13 18 14 18 24 0 10-17 10-17 11 0 0 10-12 28-27 41-24 20-25 26-14 40 12 14 11 16-5 16-18 1-18 1 0 15 20 15 20 15 0 15-10 0-29 3-41 6-18 5-23 2-23-14 0-11 6-23 13-25 9-4 8-8-3-16s-16-6-18 7c-2 9-8 21-13 26-5 6-9 23-9 39 0 30-30 71-37 50-3-8-12-9-27-3-13 5-29 4-37-1-11-7-11-9-1-9 7 0 11-4 8-9s-15-7-27-4c-16 4-17 8-7 14 10 7 10 9 1 9-19 0-16 27 5 39 9 6 13 11 7 11-5 0-11 12-12 27 0 15-9 33-20 40-14 11-15 15-4 22 10 6 4 12-21 20-23 8-34 17-34 31 0 11 2 20 4 20s23-16 46-35c50-41 57-42 76-15 16 22 40 27 41 8 0-10 2-10 6 0 3 7-3 22-13 33-17 19-40 27-30 10 3-5 0-14-7-20-11-9-13-4-12 20l2 32-64-6c-53-5-64-4-60 8 3 7 1 16-6 18s-8 8-4 13c4 4 21 3 37-3 37-14 37-11 5 22-30 29-47 33-38 8 5-14-1-12-22 7-22 19-27 21-22 7 11-29-19-31-50-3-22 21-29 23-31 11-4-20-18-19-26 1-4 11-13 14-30 10-23-6-24-5-13 24 6 17 17 30 25 30 7 0 10 4 7 10-3 5 7 12 22 15 15 4 38 11 51 16 29 11 32 11 32-1 0-5-6-10-14-10-26 0-34-24-14-42 10-10 18-15 18-10 0 4 5 0 11-8 7-11 9-6 7 20-3 29 0 35 17 35 11 0 19-6 18-12-4-18 39-12 54 7 6 8 15 11 19 7 5-4 2-12-6-17s-11-12-7-16 15 0 25 10c12 14 14 20 5 23-25 9-14 33 15 32 24 0 25-1 7-9-16-7-14-9 15-9h35l-25 20c-14 11-33 27-43 35-21 17-49 18-65 2-9-9-12-9-12-1 0 7-9 15-21 18-20 7-20 7-2 27 10 11 27 24 38 29 28 11 75 11 75-1zm-156-102c-3-4-15-8-26-8-21 0-21 1-3 20 14 15 21 17 26 8 4-7 5-16 3-20zm107 2c-7-3-9-14-5-23 5-13 0-17-21-17h-26l21 30c12 17 26 27 32 24 7-4 6-9-1-14zm663-26c9-3 13-10 10-15s-15-4-27 2c-16 9-22 9-25 0-4-12-22-5-22 10 0 10 40 12 64 3zm76-34c18-12 2-12-25 0-13 6-15 9-5 9 8 0 22-4 30-9zm37-17c-4-3-10-3-14 0-3 4 0 7 7 7s10-3 7-7zm-59-41c5-16-36-3-42 13-4 11 0 12 16 6 12-4 24-13 26-19zm141-16c9-10 8-16-4-26-9-7-19-9-23-5s-1 10 6 12c10 4 10 8 1 19-7 8-7 14-1 14 5 0 15-6 21-14zm-1089-15c0-6-5-13-11-17-7-4-8-9 0-17 15-15-5-47-29-47-14 0-20-7-21-22-1-18-2-19-6-5-3 10 1 24 7 32 7 8 10 21 7 29-3 7 3 23 14 35 21 22 39 28 39 12zm877-8c-4-3-7 0-7 7s3 10 7 7c3-4 3-10 0-14zm30 10c-4-3-10-3-14 0-3 4 0 7 7 7s10-3 7-7zm-877-33c0-11-2-20-4-20s-6 9-9 20-1 20 4 20 9-9 9-20zm1007 13c-4-3-10-3-14 0-3 4 0 7 7 7s10-3 7-7zm89-8c-3-8-2-14 2-14 27 4 29-3 15-52-13-45-13-52 1-68 9-10 16-23 16-31 0-7-9-1-21 14-11 14-25 26-31 26s-1-8 10-19c26-22 29-56 6-65-25-10-34-7-34 9 0 8-5 15-11 15s-9-7-5-15c7-20-11-19-22 1-7 13-16 15-38 9-45-12-78-12-92 2-7 7-10 17-7 23 3 5 1 10-4 10-6 0-11 5-11 12 0 6 3 8 6 5 4-3 15-2 25 4 12 6 19 6 19 0 0-5-6-12-12-15-10-5-10-7 0-12 6-3 10-10 6-15-6-11 7-12 31-3 13 6 14 9 3 16-10 7-10 11 0 15 19 7 14 30-8 36-18 5-19 8-9 30 11 24 12 24 43 8 17-9 33-17 36-19 2-2-1-7-9-11-14-9-23-61-10-61 5 0 9 8 9 17s3 13 6 10c4-3 15 4 25 17 13 17 25 22 40 19 18-5 20-3 15 14-5 14-1 23 10 27 9 4 14 9 11 13-4 3-14 0-23-8-13-11-18-11-21-1-3 6-11 12-19 12s-11-6-8-15c4-10 0-15-11-15-14 0-15 6-10 33 9 40 11 42 28 29 10-8 16-6 25 9 14 22 37 26 28 4zm-1801-1c8-4 22-19 30-35 15-29 49-32 38-3-3 8-1 14 5 14 5 0 12-7 16-15 8-21 26-19 26 4 0 19 25 35 40 26 19-12 1-40-31-48s-33-10-15-23c18-12 18-15 2-39-18-27-36-33-36-12 0 24-80 99-106 101-13 0-24 7-24 14s4 11 9 7c5-3 12-1 16 5 7 12 8 12 30 4zm755-4c0-5-7-10-16-10-8 0-12 5-9 10 3 6 10 10 16 10 5 0 9-4 9-10zm77-34c-4-10-1-13 8-10 10 4 12 0 8-15-3-12-1-21 6-21 6 0 11-4 11-9 0-4-11-6-24-4-13 3-36-3-50-12-26-17-33-12-17 14 5 7 14 10 20 7 6-4 11-3 11 3 0 5-5 11-11 13-8 3-8 10 2 26 15 24 44 31 36 8zm-67-16c0-5-4-10-10-10-5 0-10 5-10 10 0 6 5 10 10 10 6 0 10-4 10-10zm180-16c0-14-3-14-15-4-8 7-15 14-15 16s7 4 15 4 15-7 15-16zm-714-21c-10-10-19 5-10 18 6 11 8 11 12 0 2-7 1-15-2-18zm464 22c0-3-9-14-20-25-23-23-26-19-8 10 12 18 28 27 28 15zm1161-38c-8-8-14-8-23 1s-8 12 5 12c11 0 15 6 11 18-5 15-4 15 6-1 9-14 9-22 1-30zm-1107 24c3-5-3-11-14-14-13-3-20 0-20 9 0 15 26 19 34 5zm-571-51c3-12 1-17-5-14-5 3-16-2-23-12-17-23-19-4-4 30 13 28 24 27 32-4zm87 26c0-2-7-9-15-16-12-10-15-10-15 4 0 9 7 16 15 16s15-2 15-4zm-1026-21c-25-19-40-19-24 0 7 8 20 15 28 15 13 0 12-3-4-15zm1451-5c3-5-1-10-10-10s-13 5-10 10c3 6 8 10 10 10s7-4 10-10zm-686-34c-3-3-11 5-18 17-13 21-12 21 5 5 10-10 16-20 13-22zm57 18c-3-9-6-20-6-25s-5-9-12-9c-6 0-8 3-5 6 3 4 2 15-4 25-8 16-6 19 12 19 15 0 19-4 15-16zm772-10c9-18 17-24 31-19 11 3 22 1 26-5 3-6 12-7 18-4 7 4 9 4 5-1-13-14-66-13-72 1-3 8-16 14-28 13-13 0-17-3-10-6 17-7 15-23-3-23-8 0-15 9-15 20s5 20 10 20c6 0 10 7 10 15 0 23 16 18 28-11zm42 0c0-2-7-4-15-4s-15 4-15 10c0 5 7 7 15 4 8-4 15-8 15-10zm-1616-8c-3-7-16-13-29-13-14 0-22 4-19 9s12 7 20 4 14-1 14 4c0 6 4 10 10 10 5 0 7-6 4-14zm1486 4c0-5-8-10-17-10-15 0-16 2-3 10 19 12 20 12 20 0zm-642-18c15-15 17-24 8-43l-10-24-4 30c-2 16-11 35-20 42-11 8-12 12-4 13 6 0 20-8 30-18zm1469 1c-4-3-7 0-7 7s3 10 7 7c3-4 3-10 0-14zm-2531-40c-2-14-12-34-22-42-27-22-64-88-59-104 8-20-11-41-30-33-13 5-16 13-10 34 3 15 7 38 7 52s3 19 5 13c5-13 53 37 53 55 0 16 41 63 50 57 5-3 7-17 6-32zm1264 17c0-9-31-23-37-16-3 3 1 11 8 19 14 15 29 13 29-3zm-1210 0c0-5-8-10-17-10-15 0-16 2-3 10 19 12 20 12 20 0zm2590-20c-7-4-10-16-6-26 9-30-8-48-38-40-32 8-25 26 10 26 15 0 23 4 19 11-4 6-13 8-21 5-21-8-17 4 7 25 12 10 26 16 31 13 6-4 5-9-2-14zm-831-16c-11-13-11-18-1-21 6-3 12-12 13-21 0-11 2-12 6-4 2 6 9 10 13 7 5-3 7-12 4-19-3-8 4-16 16-19 22-6 19-27-3-27-7 0-6 4 3 10 13 8 13 10-2 10-16 0-106 76-97 83 11 8 54 24 58 21 2-2-2-11-10-20zm47-12c-4-3-11 0-16 8-15 24-11 33 6 15 9-9 13-19 10-23zm811 6c-3-8-6-5-6 6-1 11 2 17 5 13 3-3 4-12 1-19zm48-4c-23-17-32-10-15 11 7 8 17 12 23 8s3-11-8-19zm-1585-28c0-3-4-8-10-11-5-3-10-1-10 4 0 6 5 11 10 11 6 0 10-2 10-4zm167-13c-4-3-10-3-14 0-3 4 0 7 7 7s10-3 7-7zm683-20c0 4 10 3 21-4 18-9 20-17 16-47-7-37-22-60-34-49-4 4-1 13 5 19 15 15 16 72 2 63-5-3-10-15-10-26 0-30-17-22-24 12-7 36 2 58 15 38 5-8 9-10 9-6zm-43-23c8-12 9-21 3-25s-8-10-5-15-3-14-14-20c-17-8-22-6-32 12-9 17-9 24 5 33 9 7 16 17 16 24 0 17 14 13 27-9zm-2092-29c7-12-12-24-25-16-11 7-4 25 10 25 5 0 11-4 15-9zm2152-78c-4-3-7 0-7 7s3 10 7 7c3-4 3-10 0-14zm110-10c-4-3-7 0-7 7s3 10 7 7c3-4 3-10 0-14zm-127-2c0-5-7-11-14-14-10-4-13-1-9 9 6 15 23 19 23 5zm577-43c-4-12-2-27 4-34 7-8 7-14-1-19-5-3-10-1-10 4 0 6-7 11-16 11s-13 5-10 13c3 6 9 20 12 30 9 25 27 21 21-5zm-537-59c0-6-4-7-10-4-5 3-10 11-10 16 0 6 5 7 10 4 6-3 10-11 10-16zm140 0c0-14-25-39-39-39-6 0-11-6-12-12 0-10-2-10-5-1-7 16 25 63 42 63 8 0 14-5 14-11zm117-13c-8-10-14-11-19-3-4 6-2 15 5 19 17 11 28-1 14-16zm-220-23c-4-3-7 0-7 7s3 10 7 7c3-4 3-10 0-14zm-20 0c-10-10 13-32 27-27 8 3 16-3 20-12 11-29-3-29-34 1-32 30-38 45-18 45 6 0 8-3 5-7zm373-37c0-8-7-17-16-20-25-10-30 2-8 19 24 18 24 18 24 1zm-250-12c0-17-22-14-28 4-2 7 3 12 12 12s16-7 16-16zm-38-48c4-19 1-23-10-18-11 4-14 1-9-11 4-11 1-17-8-17-17 0-20 35-5 45 6 4 8 11 5 16-4 5 0 9 8 9s17-11 19-24zm373-4c-3-3-11 0-18 7-9 10-8 11 6 5 10-3 15-9 12-12zm-18-29c-4-3-7 0-7 7s3 10 7 7c3-4 3-10 0-14zm1086-2c15-6 27-12 27-15 0-2 3-11 6-20 4-10 1-16-8-16-10 0-13-9-10-30 5-32-14-90-30-90-5 0-6-5-2-12 4-6-4-3-18 8-15 10-25 23-25 29 1 5-13 14-30 19-18 6-33 14-33 19 0 4-4 5-10 2-5-3-10-2-10 4 0 5-3 18-7 28-6 16-5 16 10 4 27-21 30-8 5 19-17 18-18 22-5 17 11-4 17-1 17 8 0 23-4 30-17 30-6 0-15 4-19 8-11 11 127 1 159-12zm-494-12c13 0 30-4 38-10 11-9 17-8 26 6 12 16 15 16 29 1 9-9 21-16 27-16 5 0 16-9 24-20 12-17 18-19 46-9 17 6 42 8 54 5 14-3 33 1 46 10 17 13 25 14 34 4 9-9 8-15-7-25-17-13-17-17-5-31 11-13 11-18 2-21-21-7-15-44 7-50 23-6 25-14 8-32-11-11-10-13 4-8 10 3 20 2 23-2 7-12-68-20-82-9-7 5-16 7-21 4-4-3-16 9-26 26-14 22-21 27-27 17-4-7-12-10-16-5-4 4 0 14 10 21 16 12 15 14-12 23-30 11-30 10-28-26 2-32 7-38 35-47 33-9 44-25 17-25-19 0-19-10 1-35 13-17 17-18 27-5 7 8 25 16 41 18 22 3 27 0 23-12-4-9-2-16 2-16 5 0 11 6 14 13 2 6 8 9 12 4 5-4 4-12-2-18-17-17-5-42 12-26 7 7 12 14 11 17-2 3 5 13 16 23 16 15 18 15 18 1 0-18 23-44 39-44 6 0 11-4 11-9s-15-5-35-1c-36 8-52-1-39-22 4-6 3-8-3-5-5 3-27 2-49-3-24-6-40-6-42 0-5 12-42 13-61 1-11-7-4-12 25-19 83-21 104-22 104-7 0 8 5 15 11 15 5 0 7-4 4-10s1-7 9-4c9 3 16 13 16 21s4 12 9 8c6-3 6-17-1-36-8-24-8-33 3-40 7-4 10-12 5-16s-11-2-13 5c-6 16-21 15-39-2-12-13-11-17 8-30 12-9 17-16 11-16-12 0-27-60-26-101 1-22-2-26-20-22-20 4-20 3-4-7 24-15 12-30-24-30-22 0-29-5-29-19 0-11 5-23 10-26 6-3 10-1 10 6s3 10 6 7c11-12-27-70-42-64-9 3-12 1-9-4 3-6 0-10-9-10-8 0-17-6-20-12-3-7-5-1-3 14 3 20 0 25-12 21-9-4-21-10-27-14-6-5-11-3-11 6 0 8 6 15 12 15 7 0 20 9 30 20 14 15 15 20 4 20-35 0-59-13-59-32 0-10-4-17-9-13-5 3-17-5-25-17l-16-22v27c0 17-5 27-15 27-8 0-15 5-15 11s-7 9-15 5c-8-3-15-1-15 4 0 6 11 10 24 10 22 0 24 4 22 40-2 45-13 61-27 40-8-13-10-13-19 0-8 13-10 13-10-2 0-9 4-18 9-20 4-1 12-14 16-28 6-19 5-22-5-13-9 8-17 7-31-5-25-22-24-30 7-58 14-14 19-24 12-24s-4-6 7-12c11-7 26-17 33-24 10-10 8-13-10-17-17-3-15-5 9-6 17 0 34-5 38-11 3-5 12-7 20-3 11 4 15-2 15-20 0-36-83-120-110-112-22 7-28-10-7-18 11-5-17-11-35-8-5 0-8-5-8-13 0-7-7-19-15-26-12-10-13-8-10 10 3 17 0 20-15 15-11-3-28-2-38 4-16 8-21 6-31-16s-14-24-22-12c-5 7-9 11-10 7-1-5-3-12-4-18-1-5-3-14-4-20 0-5-6-10-12-10-8 0-9 11-5 33 4 20 3 27-3 18-7-11-10-11-17 0-4 7-3 14 4 17 7 2 12 11 12 19 0 13 3 13 15 3 13-11 14-10 9 4-4 11-19 16-51 16-39 0-44-2-33-15 7-8 16-13 20-10 4 2 5-6 3-20-5-22-7-23-32-12-14 6-30 17-34 24-11 17-47-20-47-48 0-12-8-23-20-26-23-6-27-23-5-23 8 0 15-5 15-11 0-5-4-8-9-4-5 3-12 1-16-5-3-6 4-14 17-19 27-11 26-12-25-16-37-3-71-30-60-48 7-11 46 3 60 22 16 22 27 7 13-18-6-12-20-21-31-21-12 0-18-4-13-11 4-7 1-10-7-7-16 5-69 109-62 122 3 4 9 2 14-5 4-7 6-16 3-20-2-4 0-10 6-14 6-3 13 1 16 10 4 10 10 12 18 6 12-10 30 5 33 29 2 11-10 19-38 27l-40 11 22-24c12-13 19-24 14-24-4 0-16 9-26 21-18 21-15 54 4 42 6-4 8 0 4 10-6 17 17 42 41 42 8 0 18 7 20 15 5 13 3 13-11 1-14-11-18-11-23 4-4 9-2 21 5 28 6 6 11 26 11 45 0 31 2 34 24 28 20-5 25-1 30 20 4 14 12 24 19 21 6-2 21 5 32 15 17 17 20 17 23 4 4-20 7-20 37 0 20 13 23 20 14 35-8 15-6 19 6 19 9 0 13-4 10-10-3-5 3-10 15-10 18 0 21-5 18-32-2-17-9-34-17-36-10-3-12 0-8 12 6 14 3 16-16 10-12-3-29-13-38-20-21-19-39-18-40 4-1 14-2 14-6-3-3-11-11-24-18-30-7-5-15-22-19-37-5-21-3-28 9-28 8 0 15-7 15-15s7-15 15-15h20c3 0 5 3 4 7 0 4 8 10 18 14 15 5 13 8-12 22l-30 16 27 1c17 0 33-8 40-20 16-24 22-25 47-3 23 19 19 35-6 26-14-6-13-1 4 23 12 16 24 46 28 66s13 39 21 42 14 15 14 26 7 20 16 20c14 0 14 2 0 15-17 17-12 39 16 67 10 10 18 28 18 41-1 26-44 61-66 53-10-4-14 3-14 30 0 26-3 33-12 27-7-4-21-6-30-5-10 2-18-2-18-7 0-6 6-11 13-12 10 0 10-2 0-6-7-2-13-16-13-31 0-24-1-25-14-7s-14 18-26-6c-20-37-56-56-43-22 8 21 40 53 53 53 6 0 10 5 10 10 0 6-9 10-20 10s-20-6-20-13c0-14-35-39-44-30-3 3 2 11 11 18 14 11 13 13-11 17-14 3-29 1-33-5s-1-7 7-2c10 6 12 3 7-14-3-14 0-24 9-28 17-6 19-43 2-43-7 0-5-5 5-11 14-8 15-14 6-30-6-12-8-23-5-26 9-9 26 8 26 26 0 11 9 21 22 24 12 4 19 9 16 13-4 3 0 13 8 22 13 12 17 13 24 2 4-7 12-10 17-7s9-3 9-14-7-19-17-19c-21 0-31-24-16-39 8-8 8-11-1-11-7 0-15 7-18 15-5 12-10 13-20 4-8-6-14-18-14-25 0-8-6-14-14-14s-21-6-28-12c-19-19-48-21-48-4 0 8 8 16 18 19 16 4 16 4-2 12-11 5-21 4-25-3s-12-8-21-2c-12 7-12 13-1 33 15 27 8 47-15 47-11 0-12 4-2 19 6 10 17 17 23 15 15-6 39 22 30 36-3 5-17 10-31 10-13 0-24 5-24 11 0 8-5 8-15-1-8-7-15-19-15-27 0-9-6-13-14-10s-17 1-20-6c-2-7-5-4-5 5-1 25 39 128 49 128 5 0 25 14 44 31 19 16 43 29 53 27s18 2 18 7c0 6 12 22 27 36 27 27 27 27 45 7 23-26 71-50 83-43 6 3 10-1 10-10 0-10-5-13-12-9-8 5-9 2-5-10 4-10 1-24-8-32-27-28-14-41 35-35 51 5 64 9 68 20 2 6-3 9-10 6-9-4-20 5-28 20-7 14-17 25-22 25-4 0-8 7-8 15 0 22 21 18 27-5 3-11 12-20 20-20 11 0 13 4 6 13-16 21-9 42 15 45 12 2 22 8 22 14 0 5-6 8-12 5-48-18-58-18-52-3 3 9 1 16-5 16s-8 6-5 14 1 23-5 33c-8 14-10 14-11 3 0-10-10-15-29-15-48 0-55 14-42 87 7 35 13 71 15 82 4 26 84 106 107 106 10 0 18-3 17-7-2-5 2-9 7-10 6-2 11 2 11 7 1 6 2 12 3 15 0 2 13-1 29-7 15-6 38-10 51-9zm318 15c-3-3-12-4-19-1-8 3-5 6 6 6 11 1 17-2 13-5zm-47-18c0-13-68-31-79-21-2 3 3 5 12 5 10 0 17 4 17 9 0 8 16 16 43 20 4 0 7-5 7-13zm-94-5c-18-7-66-3-66 5 0 2 19 4 43 3 30 0 36-3 23-8zm-1049-38c-4-3-10-3-14 0-3 4 0 7 7 7s10-3 7-7zm1279-113c1-23 0-26-3-9-3 21-8 25-29 21-13-2-24 0-24 5 0 16 13 24 35 21 15-2 20-11 21-38zm-79 13c-4-3-7 0-7 7s3 10 7 7c3-4 3-10 0-14zm123-59c0-8-4-12-10-9-5 3-10 13-10 21s5 12 10 9c6-3 10-13 10-21zm34-11c-5-30-14-61-39-133l-15-45 6 53c5 44 3 52-11 52-12 0-15 5-10 23 9 27 25 46 25 29 0-7 7-12 16-12 11 0 14 6 9 20-7 21 0 40 15 40 5 0 7-12 4-27zm-79 7c3-5-1-10-9-10-9 0-16 5-16 10 0 6 4 10 9 10 6 0 13-4 16-10zm865-56c0-8-4-12-10-9-5 3-10-1-10-9 0-17 36-22 58-7 17 10 17 21 2 31-6 4 9 7 34 8 30 2 56-5 79-18 35-21 53-45 39-53-4-2-2-3 4-1 10 2 64-48 64-59 0-3-9-3-21 0-12 4-25 0-30-8-7-11-9-10-9 4 0 18-15 23-25 8-3-5 0-13 6-17 18-11-19-34-54-34-21 0-40-10-63-35-19-18-34-39-34-45 0-7-6-8-19-1-10 6-22 7-26 3-5-4-5 1-2 10 4 12-2 19-24 27-18 6-29 6-29 0 0-5 9-9 21-9 11 0 19-5 17-12-7-19-24-20-41-3-9 8-26 15-38 15-20 0-21-2-8-17 18-23 18-42-3-72l-17-24-15 38c-9 21-16 43-16 51 0 17 32 34 64 34 14 0 26 4 26 10 0 5-16 7-34 5-19-3-38 0-41 6-5 6-12 6-23-3-13-12-14-10-4 9 7 12 12 33 12 46 0 14 7 28 16 31 14 5 15 4 4-9-16-19-10-26 17-19 13 4 20 11 16 20-3 8 1 14 8 14 8 1 4 6-9 13-22 13-22 13-4 30 19 17 20 17 25-3 3-12 13-20 26-20 23 0 28 15 9 24-7 3-3 3 10 0 16-4 22-1 22 10 0 9-4 16-10 16-14 0-12 27 3 33 24 10 37 7 37-9zm-63-21c-4-3-10-3-14 0-3 4 0 7 7 7s10-3 7-7zm-1442-13c-3-5-11-10-16-10-6 0-7 5-4 10 3 6 11 10 16 10 6 0 7-4 4-10zm65-10c0-5-2-10-4-10-3 0-8 5-11 10-3 6-1 10 4 10 6 0 11-4 11-10zm586-116c-3-9-6-22-6-30 0-12-4-12-20-2-20 13-20 13 1 20 11 4 17 12 14 18-3 5-1 10 5 10 7 0 9-7 6-16zm1126-36c-6-6-7 0-4 19 5 21 7 23 10 9 2-10 0-22-6-28zm-1735 25c-4-3-10-3-14 0-3 4 0 7 7 7s10-3 7-7zm1653-13c12-8 12-10-5-10-16 0-13-4 12-20 18-11 39-17 47-14s16-3 19-15c4-18 0-20-29-19-23 1-30 4-22 10 10 6 10 10-2 18-20 13-30 12-30-2 0-7-7-2-16 10-15 22-13 52 3 52 4 0 15-5 23-10zm103-82c6-46 1-62-15-52-7 4-7 9 0 13s8 20 3 44c-5 20-5 37-1 37s10-19 13-42zm-1183 12c0-5-7-10-16-10-8 0-12 5-9 10 3 6 10 10 16 10 5 0 9-4 9-10zm860-39c13-26 13-31-4-31-9 0-12-7-9-20s-1-22-12-26c-22-9-65 12-65 31 0 20 10 19 26-2 12-16 15-16 23-3 7 10 7 16 1 18s-10 15-10 28c0 30 34 33 50 5zm138-9c2-7-2-10-12-6-9 3-16 11-16 16 0 13 23 5 28-10zm-101 1c-4-3-10-3-14 0-3 4 0 7 7 7s10-3 7-7zm-1722-47c20-15 19-15-6-16-34 0-62 21-54 42 6 14 9 15 23 2 9-7 26-20 37-28zm1925 40c0-11-19-15-25-6-3 5 1 10 9 10 9 0 16-2 16-4zm44-2c-7-3-9-14-6-26 4-18 3-19-16-9-26 14-18 41 12 40 11 0 16-3 10-5zm-1667-21c-4-3-10-3-14 0-3 4 0 7 7 7s10-3 7-7zm1613-15c0-6-7-7-16-4s-18 6-20 6c-3 0-3 4 1 10 7 11 35 2 35-12zm89 5c0-5-4-17-9-28-8-17-8-16-7 8 1 15 5 27 9 27s8-3 7-7zm-1709-33c0-5-4-10-9-10-6 0-13 5-16 10-3 6 1 10 9 10 9 0 16-4 16-10zm-320-41c0-12 5-16 14-13 8 3 17 1 20-4 3-6-2-13-11-16-17-7-33 9-33 35 0 8-6 21-12 29-11 12-10 12 5 1 9-7 17-22 17-32zm1817 27c-3-7-1-18 5-24 13-13-4-23-21-13-10 7-10 13-2 30 13 23 26 29 18 7zm-1508-12c5 3 11-4 14-15 4-13 1-19-6-16-53 22-53 22-37 2 14-17 13-18-3-12-10 4-25 7-33 7-12 0-12 4 2 25 13 20 20 23 35 14 11-5 23-8 28-5zm-1437-14c11 0 15-5 12-15-4-8-1-15 5-15s11-7 11-15-7-15-15-15-15-5-15-12c0-6-3-9-6-5-3 3-18 1-32-4-17-7-29-6-36 1-15 15-34 12-39-7-3-15-6-14-14 6-7 18-12 21-18 11-5-8-2-16 8-22 9-5 15-14 13-21-1-6-1-9 1-4 3 4 13 7 24 7 15 0 19-7 19-32-1-30-2-32-15-15-13 18-14 18-32-3-10-12-28-26-40-31-13-5-23-14-23-21 0-10 3-9 9 1 10 15 41 8 41-10 0-6-6-9-14-6s-17-1-20-10c-4-10-15-14-31-11-17 4-25 1-25-8 0-8 7-14 15-14s22-11 31-25 26-25 37-25c15 0 18-3 10-11s-17-8-33 1c-25 13-33 8-36-23-2-25 22-57 43-57 7 0 13-7 13-15 0-9 6-12 16-8 9 3 13 12 9 21-3 9-3 14 0 10 3-3 17 5 29 17 22 22 24 39 15 92-4 22 2 44 10 38 5-3 12-1 16 5 3 5 1 10-5 10s-8 5-5 10c4 6 15 8 26 5 12-4 19-2 19 6 0 9 4 8 13-3 16-20 45-30 52-18 4 6-2 10-11 10-15 0-16 2-2 18 9 9 13 23 10 31s1 12 9 9 13-11 12-17c-2-6 8-11 22-11 21 0 25-4 23-22-2-13-7-29-12-37-6-10-5-12 2-7 7 4 12 3 12-3s7-8 15-5c8 4 12 11 8 18-4 6 1 5 10-3 10-8 20-11 24-7 4 3-3 13-16 22-15 11-20 22-16 35 5 16 3 20-11 17-23-4-27 12-8 37 12 17 16 18 24 5 5-8 12-11 16-8 3 4-1 15-11 24-9 9-15 25-12 34 3 10 1 24-4 31-6 10-9 11-9 2 0-7-7-13-16-13-10 0-14-6-10-15 10-27-22-16-36 13-13 25-13 27 9 28 13 1 20-2 17-7s2-9 12-9c14 0 14 2 3 16s-10 18 6 30c18 14 18 14-1 15-18 0-18 1 1 8 22 9 81 8 105-2 8-3 35-11 60-17 62-17 119-42 124-57 3-7 1-13-4-13-15 0-12-26 5-40 12-10 15-7 21 14 5 21 10 25 28 20 21-6 76-52 76-64 0-4-9-17-20-30-16-19-20-20-21-7-1 10-2 23-3 30-2 19-30 14-34-6-2-10 6-27 18-37l21-19-32-58c-17-32-40-70-50-85-11-14-19-30-19-35 0-4-8-13-19-20-10-6-21-26-25-43-7-38 12-61 52-65 42-4 75-17 63-24-7-5-7-17-2-36l9-30 1 27c1 35 13 41 58 28 21-6 67-13 103-16 102-9 164-28 168-51 2-15-4-23-25-28l-28-8 25-7c25-8 25-8 2-9-19-1-22-5-17-21 7-23 2-25-27-9-14 8-23 8-31 0-6-6-17-11-24-11-11 0-11 5-2 21 14 27-2 46-21 24-18-21 5-65 34-66 18-1 18-2-4-8-15-4-28-3-32 3-5 8-8 7-8-1 0-6-9-11-19-10-11 0-18 4-15 8 2 4 0 10-6 14-5 3-10-1-10-10 0-14-9-16-49-13-27 1-47 0-44-4 2-5-20-9-49-9-29-1-65-2-80-3-16-1-28 2-28 6s-5 8-11 8-9-6-6-13c3-9-6-13-31-14-34-1-35 0-17 13 10 8 13 14 7 14-7 0-12 6-12 13 0 8-15 12-42 12-32 0-43-4-42-15s-12-16-48-18c-29-2-48 1-48 8 0 10-42 5-64-8-13-7 17-22 36-16 9 2 19 0 23-6 3-6 11-8 16-5 5 4 9 2 9-4 0-5-24-9-55-8-30 1-55 0-55-3 0-13-59-9-70 5-7 8-23 15-36 15-25 0-30-10-15-25 6-6-2-11-22-12-18-1-58-4-90-6-33-3-55-1-51 4 3 5 12 9 20 9s14 7 14 15-7 15-15 15c-18 0-19 12-3 28 8 8 3 11-23 9-19-1-39-5-45-9-5-4-22 9-37 28-16 19-33 34-39 34s-5-6 3-16c11-14 10-19-10-35s-21-20-7-25c9-3 26-4 37-1 25 7 59-12 59-31 0-9 6-12 15-8 9 3 15 0 15-9 0-18-48-27-124-23-75 4-71-9-87 248-3 42 7 90 19 90 10 0 9 4-2 16-21 21-20 27 4 21 21-5 28 7 10 18-15 9-12 43 9 105 14 41 21 51 26 38 8-19 30-24 40-8 3 5-1 26-10 46-19 45-19 50 0 34 12-10 15-10 15 4 0 9-5 16-11 16-5 0-7 5-4 10 5 8 12 7 23-2 15-12 16-11 3 4-18 23-6 68 17 68 10 0 23 5 28 10 7 7 16 6 29-3 17-14 17-15-2-34-11-11-27-23-34-27-8-3-2-4 12-1 31 6 46-17 23-35-10-9-14-9-14-1 0 6-7 11-15 11s-15-9-15-19c0-11-6-21-12-24-9-3-10-8-2-16 7-8 15-6 30 7 22 21 80 39 69 22-3-5-1-10 4-10 15 0 14 11-5 32-13 13-14 21-5 32 6 7 9 20 5 29-3 10 0 15 12 14 9-1 19 4 22 12 3 10 0 12-12 8-12-5-17-2-15 11 2 29-1 38-9 24-6-9-15-10-33-3-24 10-24 10-1 10 12 1 22 5 22 10s8 7 18 4c11-2 32 7 50 22s32 23 32 19 9 1 20 11c13 12 30 16 54 13 20-2 32 0 29 6-4 5 1 7 10 3 9-3 18 1 21 10 4 10 14 13 29 9 12-3 30-6 39-6zm71-11c-4-12-11-18-20-15-8 3-17 6-19 6s-4 7-4 15c0 9 9 15 24 15 19 0 23-4 19-21zm2803 12c-3-5 3-20 14-32 11-13 19-18 20-11 0 14 30 17 30 2 0-5 8-10 18-11 12 0 10-3-7-10-23-9-44 0-111 49-5 4 21 22 33 22 5 0 6-4 3-9zm134-22c0-5-10-9-21-9-18 0-19 2-9 15 12 15 30 12 30-6zm107-26c-4-3-7 0-7 7s3 10 7 7c3-4 3-10 0-14zm-1887-11c7 2 13-7 15-19 1-12-2-20-7-17-4 3-8-4-8-15 0-12-4-21-10-21-5 0-10 4-10 10 0 11-32 1-42-14-5-7-8-7-8 2 0 7 7 15 15 18 20 8 19 26-1 22-10-2-19 3-21 10-3 7 6 12 24 13 19 1 22 3 9 6-15 4-16 7-5 13 7 5 18 5 25-1 7-5 17-8 24-7zm200-2c0-5-7-10-16-10-8 0-12 5-9 10 3 6 10 10 16 10 5 0 9-4 9-10zm-1673-7c-4-3-10-3-14 0-3 4 0 7 7 7s10-3 7-7zm3338-10c-4-44-27-92-41-86-13 5-13 8 1 23 21 24 19 33-7 19-18-10-24-8-39 12-11 15-14 25-7 28 6 2 14-2 18-9 5-9 9-9 14-1 4 6 11 9 16 6 4-3 13 2 20 10 17 20 27 19 25-2zm-1325-3c0-5-4-10-10-10-5 0-10 5-10 10 0 6 5 10 10 10 6 0 10-4 10-10zm-1740-29c0-5-10-20-21-35-21-27-21-27-36-7-8 12-21 21-29 21-13 0-13 2 1 16 10 10 24 14 40 10 15-4 25-2 25 4s5 8 10 5c6-3 10-10 10-14zm30-22c0-10-7-19-15-19s-15-7-15-17c0-9-3-14-6-10-9 8 18 77 28 71 4-3 8-14 8-25zm1687-21c-3-8-6-5-6 6-1 11 2 17 5 13 3-3 4-12 1-19zm-1860-25c-4-3-7 0-7 7s3 10 7 7c3-4 3-10 0-14zm1493 7c12-8 11-10-7-10-12 0-24-6-26-12-4-10-8-10-16 2-19 27 16 41 49 20zm-1414-19c-4-6-14-7-23-4-15 6-14 7 3 13 22 9 29 6 20-9zm-68-21c-7-10-14-17-17-15-4 4 18 35 25 35 2 0-1-9-8-20zm26-15c-4-8-8-15-10-15s-4 7-4 15 4 15 10 15c5 0 7-7 4-15zm-70-24c3-5-3-11-15-14-16-4-18-3-8 9 13 16 16 17 23 5zm46 5c0-2-6-17-12-32-15-33-44-41-44-13 0 11 6 19 12 19 7 0 14 7 18 15 5 13 26 22 26 11zm-353-53c-4-3-7 0-7 7s3 10 7 7c3-4 3-10 0-14zm-430-28c11-8 23-27 26-42 7-37-11-134-29-154-8-8-14-20-14-26 0-5-10-19-22-30-58-53-131-67-194-37-46 22-130 103-145 139-32 78-12 130 48 123 23-2 34-14 59-62 23-43 43-66 72-82l40-22 27 28c15 15 27 32 27 37 2 36 31 109 52 125 26 21 27 21 53 3zm2213-16c0-5-10-9-21-9-18 0-19 2-9 15 12 15 30 12 30-6zm-53-6c-4-3-7 0-7 7s3 10 7 7c3-4 3-10 0-14zm-1397-3c0-5-8-10-17-10-15 0-16 2-3 10 19 12 20 12 20 0zm1510-7c0-4-12-18-27-31-17-14-21-21-11-18s20 1 23-4c4-6-1-10-9-10-19 0-22-20-3-20 6-1 1-10-13-21-26-22-41-10-20 17 7 8 10 18 6 21-4 4-11 1-16-7-8-13-11-12-24 5-15 21-4 61 14 50 5-3 11-1 15 4 3 6 12 8 19 5 8-3 17-1 21 5 7 12 25 15 25 4zm130-3c0-5-2-10-4-10s-12-3-22-7c-16-6-17-5-4 10 17 19 30 22 30 7zm-71-24c9-11 6-17-15-31-35-23-56-5-29 25 21 24 29 25 44 6zm-172-3c-4-3-10-3-14 0-3 4 0 7 7 7s10-3 7-7zm-412-258c0-17-41-17-55 0-12 15-10 16 21 13 19-2 34-7 34-13zm72-15c34 0 22-12-17-16-16-2-30 1-30 7s-5 7-12 3c-7-5-8-3-4 5 5 7 15 10 23 7s26-6 40-6zm-107-30c0-5-7-7-15-4-8 4-15 8-15 10s7 4 15 4 15-4 15-10zm120-30c0-11-4-20-8-20s-8 9-8 20 4 20 8 20 8-9 8-20zm-150 0c0-5-4-10-10-10-5 0-10 5-10 10 0 6 5 10 10 10 6 0 10-4 10-10zm249-14c31-13 49-26 42-30-6-4-18-1-26 7-10 10-27 14-53 10-33-4-38-2-39 16-2 26 9 26 76-3zm-139-16c0-5-5-10-11-10-5 0-7 5-4 10 3 6 8 10 11 10 2 0 4-4 4-10zm-705-42c-7-19-55-19-55 0 0 9 5 10 19 3 15-8 20-7 25 6 4 9 9 14 11 11 3-3 3-12 0-20zm-515-8c0-5-4-10-10-10-5 0-10 5-10 10 0 6 5 10 10 10 6 0 10-4 10-10z"/><path d="M10356 4002c-3-6-16-8-29-4-19 5-20 3-10-10 7-8 10-18 6-21-3-4 3-7 14-7 13 0 23 8 26 22 7 24 3 35-7 20zM9100 3921c0-5 7-11 14-14 10-4 13-1 9 9-6 15-23 19-23 5zM9078 3893c7-3 16-2 19 1 4 3-2 6-13 5-11 0-14-3-6-6zM9293 3293c4-3 10-3 14 0 3 4 0 7-7 7s-10-3-7-7zM9615 3272c3-10 0-12-10-8-11 4-19-3-25-19-5-14-15-25-21-25s-9 7-6 14c4 10 1 13-7 10s-17-1-21 5c-9 16-35 13-35-3 0-8 13-20 29-27 21-9 27-17 20-25-6-8-5-14 6-17 10-4 17 2 21 18 7 29 10 30 29 11 12-12 12-15-2-20-19-8-10-19 17-21 15-1 20 5 20 22 0 13-5 23-10 23-6 0-5 8 2 20 7 11 19 20 27 20 10 0 11 3 2 13-6 8-8 17-5 20 4 3-3 5-15 4-14-1-20-6-16-15zM9430 3260c0-7 3-10 7-7 3 4 3 10 0 14-4 3-7 0-7-7zM9290 3228c0-15-3-33-6-42s-2-16 4-16c15 0 26 60 13 73-8 8-11 4-11-15zM9115 3199c-4-6-5-12-2-15 2-3 7 2 10 11 7 17 1 20-8 4zM9200 3180c0-5 5-10 11-10 5 0 7 5 4 10-3 6-8 10-11 10-2 0-4-4-4-10zM9710 3171c0-10 7-22 16-25s12-2 9 5c-4 5-1 16 5 24 10 12 9 15-9 15-14 0-21-6-21-19zM9480 3166c0-2 7-7 16-10 8-3 12-2 9 4-6 10-25 14-25 6zM9214 3139c-11-18 13-34 31-19 8 7 15 16 15 21 0 13-38 11-46-2zM9607 3118c-3-22 0-38 10-48 14-13 14-13 5 6-9 16-7 24 9 37 10 9 19 12 19 7 0-6 5-10 10-10 16 0 11 27-6 34-31 12-42 6-47-26zM9510 3120c0-20 36-43 53-33 15 9 6 25-10 19-10-4-14-4-10 0 8 8-11 34-24 34-5 0-9-9-9-20zM9700 3114c0-8 5-12 10-9 6 3 10 10 10 16 0 5-4 9-10 9-5 0-10-7-10-16zM9335 3110c-3-5-1-10 4-10 6 0 11 5 11 10 0 6-2 10-4 10-3 0-8-4-11-10zM9920 3110c0-5 5-10 10-10 6 0 10 5 10 10 0 6-4 10-10 10-5 0-10-4-10-10zM9730 3101c0-6 5-13 10-16 6-3 10 1 10 9 0 9-4 16-10 16-5 0-10-4-10-9zM9533 3046c0-8 6-12 14-9 7 3 10 9 7 14-8 14-21 11-21-5zM9643 3045c-9-25 2-27 22-5 17 18 17 20 1 20-9 0-19-7-23-15zM9689 3032l-21-27 33-3c19-2 35 1 37 7s17 11 33 11c32 0 39 16 12 24-56 17-73 14-94-12zM9559 3013c-9-2-19-15-22-29-4-21-2-24 17-18 11 4 30 7 41 7 15-1 14 2-7 11-22 9-25 15-16 24 7 7 10 11 8 11-3-1-12-3-21-6zM9312 2969c2-7 10-15 17-17 8-3 12 1 9 9-2 7-10 15-17 17-8 3-12-1-9-9zM9370 2970l-25-8 28-1c15-1 27 4 27 9 0 6-1 10-2 9-2-1-14-5-28-9zM9413 2973c4-3 10-3 14 0 3 4 0 7-7 7s-10-3-7-7zM9612 2964c-7-8-17-12-23-9-15 10-10-22 6-35 12-10 15-10 15 4 0 9 7 16 15 16 16 0 19 9 7 26-5 9-11 8-20-2zM9250 2951c0-5 9-11 20-14 13-3 20 0 20 9 0 8-9 14-20 14s-20-4-20-9zM9460 2940c0-7 3-10 7-7 3 4 3 10 0 14-4 3-7 0-7-7zM9657 2923c-12-11-8-23 8-23 8 0 15 7 15 15 0 16-12 20-23 8zM9328 2906c-10-7-18-21-18-30 0-15 4-14 29 6 17 13 30 26 30 31 1 11-22 8-41-7zM9390 2900c-8-14-8-26-2-32s12 0 16 17c9 35 1 43-14 15zM9780 2910c0-5 9-14 20-20s20-7 20-3c0 5-9 14-20 21s-20 8-20 2zM9720 2890c0-11 4-20 9-20s7 9 4 20-7 20-9 20-4-9-4-20zM9556 2863c5-36 17-53 39-53 6 1 1 7-9 15-16 12-18 19-8 39 11 25 7 36-14 36-9 0-11-12-8-37zM9603 2883c4-3 10-3 14 0 3 4 0 7-7 7s-10-3-7-7zM9627 2868c-3-11-10-17-16-13-13 8-14-15-2-34 8-12 13-12 35 3 14 9 26 20 26 25s10 11 22 14c29 8 17 19-26 23-27 2-35-1-39-18zM9420 2860c0-7 3-10 7-7 3 4 3 10 0 14-4 3-7 0-7-7zM9255 2850c-3-5-1-10 4-10 6 0 11 5 11 10 0 6-2 10-4 10-3 0-8-4-11-10zM9696 2841c-4-6-4-11 1-11 4 0 1-5-7-11-13-9-12-10 2-5 10 3 20 1 23-4 4-6 2-10-3-10-6 0-8-10-4-22 3-12 7-17 10-10 4 14 22 16 22 2 0-5-11-12-25-16-25-6-36-26-12-21 7 1 11-7 9-22-2-18 2-22 14-17 8 3 17 6 20 6 2 0 1 6-2 14-3 9 5 22 21 32 23 15 31 38 11 34-4-1-23 15-41 35-20 23-35 33-39 26zM9485 2782c9-18 13-36 11-41-6-8 39-21 75-21 10 0 26 11 35 25 15 23 15 26-1 41-9 10-20 13-23 8-12-16-85-13-100 5-8 10-7 3 3-17zm105-32c0-5-4-10-10-10-5 0-10 5-10 10 0 6 5 10 10 10 6 0 10-4 10-10zM9850 2780c0-7 3-10 7-7 3 4 3 10 0 14-4 3-7 0-7-7zM9815 2760c-4-6 3-10 14-10 25 0 27 6 6 13-8 4-17 2-20-3zM9530 2690c0-5 5-10 11-10 5 0 7 5 4 10-3 6-8 10-11 10-2 0-4-4-4-10zM9670 2670c0-5 5-10 11-10 5 0 7 5 4 10-3 6-8 10-11 10-2 0-4-4-4-10zM9530 2660c0-7 3-10 7-7 3 4 3 10 0 14-4 3-7 0-7-7zM9750 2655c0-8 9-13 20-12s20 4 20 8-9 9-20 12c-13 3-20 0-20-8zM9823 2643c4-3 10-3 14 0 3 4 0 7-7 7s-10-3-7-7zM9680 2540c0-5 5-10 10-10 6 0 10 5 10 10 0 6-4 10-10 10-5 0-10-4-10-10zM9795 2540c-3-5 1-10 9-10 9 0 16 5 16 10 0 6-4 10-9 10-6 0-13-4-16-10zM9562 2478c-15-15-16-55-2-63 6-3 7 1 4 10-4 9 1 24 10 34 19 21 7 38-12 19zM9520 2411c0-5 7-12 16-15 24-9 28-7 14 9-14 17-30 20-30 6zM9593 2413c4-3 10-3 14 0 3 4 0 7-7 7s-10-3-7-7zM8923 3093c4-3 10-3 14 0 3 4 0 7-7 7s-10-3-7-7zM10035 2950c3-5 8-10 11-10s2 5-1 10c-3 6-8 10-11 10s-2-4 1-10zM10900 2360c0-7 3-10 7-7 3 4 3 10 0 14-4 3-7 0-7-7zM10817 2343c-12-12-7-22 8-17 8 4 15 10 15 15 0 11-14 12-23 2zM10850 2320c0-7 3-10 7-7 3 4 3 10 0 14-4 3-7 0-7-7zM10873 2323c4-3 10-3 14 0 3 4 0 7-7 7s-10-3-7-7zM10833 2283c4-3 10-3 14 0 3 4 0 7-7 7s-10-3-7-7zM10345 2360c-4-6 3-10 14-10 25 0 27 6 6 13-8 4-17 2-20-3zM10480 2340c0-5 12-10 28-10 21 0 24 2 12 10-20 13-40 13-40 0zM10240 2330c0-5 7-10 16-10 8 0 12 5 9 10-3 6-10 10-16 10-5 0-9-4-9-10zM10294 2315c-16-13-17-16-4-26 11-8 5-9-27-5-35 5-47 2-63-14-11-11-20-24-20-30 0-15 43-12 66 4 10 8 29 12 42 9 19-4 22-1 22 24 0 16 5 34 12 41 17 17-4 15-28-3zm-87-72c-4-3-7 0-7 7s3 10 7 7c3-4 3-10 0-14zM10610 2299c0-4 7-12 17-17 10-6 14-16 10-26-5-12 0-16 18-16s25 6 27 20c0 11 1 26 2 33s-13 12-36 13c-21 1-38-3-38-7zm47-16c-4-3-7 0-7 7s3 10 7 7c3-4 3-10 0-14zM10453 2279c14-8 22-8 30 0s3 11-18 11c-26-1-28-2-12-11zM10460 2226c0-9-17-16-45-20-44-7-63-26-26-26 10 0 21-7 25-15 3-8 2-15-3-15s-11-10-14-22c-4-15 2-29 20-47 26-26 26-24 6 25-4 12-2 15 8 12 26-9 70 21 67 45-2 12-7 25-13 29s-2 8 8 8c15 0 15 3 5 20-15 23-38 27-38 6zm-23-33c-4-3-10-3-14 0-3 4 0 7 7 7s10-3 7-7zm33-43c0-5-7-10-15-10s-15 5-15 10c0 6 7 10 15 10s15-4 15-10zM10517 2214c3-9 9-12 12-7 3 4 10 11 15 16 5 4 0 7-12 7-15 0-20-4-15-16zM10289 2209c-11-7-11-9-1-9 7 0 10-4 7-10s5-10 19-10c13 0 27-6 29-12 4-9 6-8 6 2 1 22-42 50-60 39zM10635 2200c3-5 13-10 21-10s12 5 9 10c-3 6-13 10-21 10s-12-4-9-10zM10170 2155c-10-12-10-15 3-15 8 0 17 7 21 15 3 8 2 15-3 15s-14-7-21-15zM10290 2140c0-5 5-10 10-10 6 0 10 5 10 10 0 6-4 10-10 10-5 0-10-4-10-10zM10320 2120c0-6-10-8-24-4-13 3-27 1-31-6-11-17 3-24 20-10 12 10 15 10 15-5 0-12 5-15 16-11 9 3 27 6 41 6 25 0 26 0 8 20-19 21-45 27-45 10zM10548 2108c9-9 15-9 24 0s7 12-12 12-21-3-12-12zM10630 2101c0-5-7-16-15-24-12-13-10-14 18-12 24 2 32 7 32 21 0 10-8 20-17 22-10 2-18-1-18-7zM10505 2074c11-8 26-12 33-9 8 3 18 5 23 5 6 0 8 4 5 9s-23 9-43 9c-35 0-36-1-18-14zM10343 2073c4-3 10-3 14 0 3 4 0 7-7 7s-10-3-7-7zM10340 2050c0-7 3-10 7-7 3 4 3 10 0 14-4 3-7 0-7-7zM10478 2053c7-3 16-2 19 1 4 3-2 6-13 5-11 0-14-3-6-6zM10683 2053c4-3 10-3 14 0 3 4 0 7-7 7s-10-3-7-7zM10108 2043c7-3 16-2 19 1 4 3-2 6-13 5-11 0-14-3-6-6zM10555 2040c3-5 8-10 11-10 2 0 4 5 4 10 0 6-5 10-11 10-5 0-7-4-4-10zM10360 2020c0-7 8-10 20-7 21 5 28-7 10-18-20-13-9-25 11-13 17 10 23 10 26 1 7-18 30-16 41 4 6 9 16 14 25 10 9-3 19-2 22 3 4 6 0 11-7 11-40 4-77 9-110 15-27 4-38 3-38-6zM10321 1963c-6-20-8-39-6-42 3-2 8 10 11 27 4 18 10 29 15 26s9 2 9 10c0 30-19 16-29-21zM10141 1958c-1-28 13-45 24-28 3 5 2 10-4 10-5 0-12 10-14 23-4 19-4 19-6-5zM10530 1971c0-7-6-11-14-8s-19 0-25-7c-9-10-6-15 10-19 12-3 18-10 14-16-3-6-3-11 2-11 15 0 34 53 23 64-7 7-10 6-10-3zM10663 1963c-7-3-13-13-13-23s-6-20-12-23c-7-2-9-8-5-13 5-5 13-1 18 8s16 24 24 32c16 16 9 26-12 19zM10055 1950c-3-5 1-10 9-10 9 0 16 5 16 10 0 6-4 10-9 10-6 0-13-4-16-10zM9924 1905c-21-51-17-54 16-15 34 40 37 50 14 50-8 0-22-16-30-35zM10005 1930c3-5 8-10 11-10 2 0 4 5 4 10 0 6-5 10-11 10-5 0-7-4-4-10zM10090 1930c0-5 6-10 14-10s18 5 21 10c3 6-3 10-14 10-12 0-21-4-21-10zM10553 1933c4-3 10-3 14 0 3 4 0 7-7 7s-10-3-7-7zM10248 1910c-8-21 15-50 39-50 10 0 24-5 31-12 9-9 12-5 12 20 0 18-3 31-7 30-5-1-18 3-30 10-19 11-22 10-17-3 4-8 1-15-4-15-6 0-12 8-14 18-3 14-5 15-10 2zM10367 1913c-4-3-7-11-7-17s5-5 12 2c6 6 9 14 7 17-3 3-9 2-12-2zM10435 1910c-3-5 1-10 10-10s13 5 10 10c-3 6-8 10-10 10s-7-4-10-10zM10710 1910c0-7 3-10 7-7 3 4 3 10 0 14-4 3-7 0-7-7zM10000 1895c-7-9-8-15-2-15 5 0 12 7 16 15 3 8 4 15 2 15s-9-7-16-15zM10070 1890c0-5 4-10 9-10 6 0 13 5 16 10 3 6-1 10-9 10-9 0-16-4-16-10zM10458 1883c-10-2-18-11-18-19s-13-20-30-25c-26-9-42-29-24-29 8 0 67 42 75 53 3 5 10 8 15 7s10 3 12 9c4 11-1 12-30 4zM10530 1865c0-9-6-12-17-9-17 5-17 5-1-9 10-8 15-17 11-20-3-4-1-7 6-7 8 0 7-5-3-16-17-17-22-54-7-54 5 0 11 9 14 20s10 20 17 20 9-8 5-20c-6-18-4-19 19-9 25 12 44 45 32 57-3 3-13-3-21-14-14-18-14-17-15 14 0 17-4 32-10 32-5 0-10 7-10 15s-4 15-10 15c-5 0-10-7-10-15zM10465 1820c-3-5-1-10 4-10 6 0 11 5 11 10 0 6-2 10-4 10-3 0-8-4-11-10zM10635 1810c-7-12 2-12 30 0 19 8 19 9-2 9-12 1-25-3-28-9zM10490 1780c0-7 3-10 7-7 3 4 3 10 0 14-4 3-7 0-7-7zM10617 1784c-3-3-3-12 0-20s0-14-6-14-11-4-11-10c0-5 7-10 15-10s15 7 15 15c0 9 7 18 15 21 8 4 12 10 9 15-6 10-28 12-37 3zM10360 1746c-14-38-1-54 16-20 10 18 11 31 5 37-7 7-14 1-21-17zM10330 1750c0-5 5-10 10-10 6 0 10 5 10 10 0 6-4 10-10 10-5 0-10-4-10-10zM10490 1725c0-8 5-15 10-15 6 0 10 7 10 15s-4 15-10 15c-5 0-10-7-10-15zM10523 1723c4-3 10-3 14 0 3 4 0 7-7 7s-10-3-7-7zM10495 1690c-3-5-1-10 4-10 6 0 11 5 11 10 0 6-2 10-4 10-3 0-8-4-11-10zM10290 1647c-14-11-16-20-11-43 2-9 31 17 42 38 12 21-7 25-31 5zM10350 1610c0-5 5-10 11-10 5 0 7 5 4 10-3 6-8 10-11 10-2 0-4-4-4-10zM10423 1603c4-3 10-3 14 0 3 4 0 7-7 7s-10-3-7-7zM10378 1575c-3-14-2-25 2-25s10 11 12 25c3 14 2 25-2 25s-10-11-12-25zM10242 1573c-16-28-15-33 3-33 8 0 15-9 15-20 0-26 31-27 54-2 15 18 15 20-2 35-10 10-26 17-34 17-9 0-18 6-20 12-3 8-9 5-16-9zm68-38c0-8-7-15-15-15-16 0-20 12-8 23 11 12 23 8 23-8zM10225 1520c3-5 8-10 11-10 2 0 4 5 4 10 0 6-5 10-11 10-5 0-7-4-4-10zM10465 1510c-3-5 1-10 10-10s13 5 10 10c-3 6-8 10-10 10s-7-4-10-10zM10397 1493c-4-3-7-11-7-17s5-5 12 2c6 6 9 14 7 17-3 3-9 2-12-2zM10256 1454c-10-27 5-37 25-15 24 25 24 31 0 31-10 0-22-7-25-16zM10350 1460c0-7 3-10 7-7 3 4 3 10 0 14-4 3-7 0-7-7zM10428 1463c6-2 18-2 25 0 6 3 1 5-13 5s-19-2-12-5zM10000 1456c0-2 7-7 16-10 8-3 12-2 9 4-6 10-25 14-25 6zM10327 1433c-12-12-7-22 8-17 8 4 15 10 15 15 0 11-14 12-23 2zM10240 1410c0-7 3-10 7-7 3 4 3 10 0 14-4 3-7 0-7-7zM10017 1403c-12-12-7-33 7-33 9 0 14 9 13 20-1 20-9 25-20 13zM9963 1355c-8-23 0-25 21-4 18 17 18 19 2 19-9 0-19-7-23-15zM11790 2100c8-5 20-10 25-10 6 0 3 5-5 10s-19 10-25 10c-5 0-3-5 5-10zM11746 2086c3-8 0-24-6-36-7-12-8-26-3-31 11-11 73 29 73 48 0 12-3 13-13 5s-16-6-25 9c-14 22-34 26-26 5zM11670 2060l-25-8 27-1c15-1 30 4 33 9 7 11 0 11-35 0zM11636 2023c-7-7 20-33 33-33 19 0 12 27-8 33-11 3-22 3-25 0zM11795 2020c3-5 8-10 11-10 2 0 4 5 4 10 0 6-5 10-11 10-5 0-7-4-4-10zM11800 1970c0-5 5-10 10-10 6 0 10 5 10 10 0 6-4 10-10 10-5 0-10-4-10-10zM8770 1670c-8-5-11-12-7-16s15 0 24 9c18 18 8 23-17 7zM8630 1653c0-7 4-13 9-13s11 6 14 13c3 8-1 14-9 14s-14-6-14-14zM9000 1660c0-7 3-10 7-7 3 4 3 10 0 14-4 3-7 0-7-7zM9067 1641c3-14-4-22-26-32-29-13-43-39-21-39 6 0 10 4 10 9 0 6 15 11 33 13 23 2 32 8 31 21-1 9 4 17 12 17s14 5 14 11c0 5-8 9-17 7-10-1-23 1-30 5-7 5-9 1-6-12zm10-38c-4-3-10-3-14 0-3 4 0 7 7 7s10-3 7-7zM8554 1595c21-16 32-13 21 4-3 6-14 11-23 11-15-1-15-2 2-15zM8610 1591c0-5-3-16-6-25-10-25 12-19 30 9 16 24 16 25-4 25-11 0-20-4-20-9zM9150 1571c0-6 5-13 10-16 6-3 10 1 10 9 0 9-4 16-10 16-5 0-10-4-10-9zM9108 1563c-21-5-23-19-6-29 7-4 8-3 4 4-5 8 0 12 13 12 12 0 21 5 21 10 0 10-3 11-32 3zM8573 1542c-3-12-10-22-15-22s-6-4-3-10c3-5 1-10-6-10s-10-3-6-6c3-3 14-1 24 5s14 11 10 11-3 9 3 21c7 11 9 24 5 27-3 3-8-4-12-16zM8970 1539c0-18 5-24 19-24 8 0 16-6 19-13 2-6-1-12-7-12s-11-4-11-10c0-5 8-10 18-10 13 0 17 9 17 38 1 34-2 37-27 38-15 1-28-3-28-7zM9210 1540c0-7 3-10 7-7 3 4 3 10 0 14-4 3-7 0-7-7zM9137 1533c-4-3-7-13-7-22 1-13 3-13 11 2 11 19 8 33-4 20zM9185 1530c-3-5-1-10 4-10 6 0 11 5 11 10 0 6-2 10-4 10-3 0-8-4-11-10zM8960 1490c0-7 3-10 7-7 3 4 3 10 0 14-4 3-7 0-7-7zM9043 1493c4-3 10-3 14 0 3 4 0 7-7 7s-10-3-7-7zM9115 1480c3-5 8-10 11-10s2 5-1 10c-3 6-8 10-11 10s-2-4 1-10zM9105 1455c11-8 26-19 33-25s17-8 23-5c5 4-6 15-25 26-42 22-60 25-31 4zM8990 1451c0-5 6-14 13-20 10-8 14-7 14 4 0 8-6 16-14 19-7 3-13 2-13-3zM9053 1443c4-3 10-3 14 0 3 4 0 7-7 7s-10-3-7-7zM9206 1427c3-10 9-15 12-12s0 11-7 18c-10 9-11 8-5-6zM8540 1420c0-5 5-10 11-10 5 0 7 5 4 10-3 6-8 10-11 10-2 0-4-4-4-10zM9080 1420c0-7 3-10 7-7 3 4 3 10 0 14-4 3-7 0-7-7zM8860 1410c0-7 3-10 7-7 3 4 3 10 0 14-4 3-7 0-7-7zM9110 1410c0-5 6-10 13-11 6 0 2-4-10-9-13-5-23-17-23-26 0-16 1-16 18-1 10 10 24 17 31 17 9 0 9 5 1 20-11 21-30 27-30 10zM8968 1398c-4-9 4-14 23-15 16-1 29 2 29 7 0 6-4 10-9 10s-16 3-24 6-17-1-19-8zM8407 1383c-4-3-7-11-7-17s5-5 12 2c6 6 9 14 7 17-3 3-9 2-12-2zM8563 1383c4-3 10-3 14 0 3 4 0 7-7 7s-10-3-7-7zM8870 1386c0-2 7-9 15-16 9-7 15-8 15-2 0 5-7 12-15 16-8 3-15 4-15 2zM8886 1337c4-12 14-15 36-10 24 5 29 3 23-7-6-9-2-10 15-5 15 5 20 4 16-4-4-7 1-11 13-11 14 0 21 6 21 19 0 15-8 19-40 19-22 0-44 4-50 7-5 3-10 1-10-6 0-8-4-8-15 1-13 11-14 10-9-3zM9133 1343c4-3 10-3 14 0 3 4 0 7-7 7s-10-3-7-7zM9168 1343c7-3 16-2 19 1 4 3-2 6-13 5-11 0-14-3-6-6zM8333 1333c4-3 10-3 14 0 3 4 0 7-7 7s-10-3-7-7zM8357 1326c-21-6-35-15-31-19s2-7-4-7c-21 0-13-28 15-55 15-14 36-25 45-25 19 0 25-34 8-45-6-4-6-12 2-24 15-25 2-91-18-91-29 0-74-40-74-66 0-25 11-29 45-14 12 5 14 9 6 9-11 1-10 5 5 16 18 14 18 14-3 8-14-3-23-1-23 6 0 10 6 12 43 15 6 1 16 7 20 14 5 7 18 10 32 6 20-5 23-3 18 16-4 13 0 25 8 31 10 6 11 11 3 19-9 9-14 9-18 1-10-16-26-13-26 4 0 10 10 15 28 16 23 0 24 2 8 8-19 7-19 8 0 16 10 4 25 9 32 11 24 5 26 14 7 32-18 16-18 16-6 0 9-11 9-18 3-18s-15 7-20 16c-7 13-13 14-31 5-17-9-21-9-21 3 0 7-6 16-14 19-16 6-10 47 6 47 6 0 6 5-1 14-6 7-9 21-5 30 3 9 5 16 3 15s-21-6-42-13zm18-16c3-5 1-10-4-10-6 0-11 5-11 10 0 6 2 10 4 10 3 0 8-4 11-10zM9095 1320c3-5 8-10 11-10 2 0 4 5 4 10 0 6-5 10-11 10-5 0-7-4-4-10zM8882 1293c5-6 16-9 25-6 8 3 3-7-11-22s-32-25-40-22c-16 7-36-11-36-32 0-11 3-12 8-5 4 6 23 14 42 17s44 7 55 9c13 2 20-3 20-12 0-8-6-14-12-12-16 3-17-25-2-30 9-3 8-10-2-25-10-18-10-24 0-37 7-9 17-13 22-10s9 1 9-5c0-5-4-13-10-16-15-9-12-25 3-19 8 3 19-1 25-9 9-11 1-12-49-6-46 5-64 12-76 29-8 12-21 19-29 16-21-8-27 11-7 23 16 9 15 11-10 20-16 6-30 11-32 11s-3-16-2-35c1-30 6-37 34-47 18-7 33-16 33-21s-7-7-15-3c-20 7-19 0 5-34 11-16 19-35 18-42-2-7 7-14 20-16 28-4 31 28 2 35-11 3-20 12-20 19 0 11 13 14 50 13 48-2 66-18 40-34-6-4-8-10-5-15 6-10 49 27 58 50 4 11 6 9 6-6 1-11 10-29 21-39 22-20 26-14 9 17-8 15-8 19 0 14 6-4 11 0 11 8 0 9 5 16 11 16 5 0 7-5 3-11-4-7 1-10 12-7 13 2 18 10 16 27-3 19 0 22 18 16 15-5 26-1 36 12 8 10 14 14 13 8-1-5-1-19 0-29 1-15 4-17 13-8s9 18 0 37c-10 21-9 25 4 25 14 0 14 2 0 15-18 19-30 19-45 1-9-11-27-13-63-7-5 0-8 8-8 16s-12 18-27 21c-29 8-62 40-63 63 0 11 3 11 14 1 12-9 15-8 14 7-1 10 2 30 5 46 8 28-1 35-20 16-8-8-16-6-29 8-21 20-79 26-62 6zm151-172c2-10 1-25-4-32-6-10-9-8-9 9 0 13-4 21-9 18-12-8-41 3-41 15 0 5 13 9 29 9 20 0 30-6 34-19zm37-57c0-14-12-19-23-8-9 9 4 35 14 28 5-3 9-12 9-20zm47 9c-4-3-10-3-14 0-3 4 0 7 7 7s10-3 7-7zm-97-18c10-12 10-15-4-15-9 0-16 7-16 15s2 15 4 15 9-7 16-15zm-43-42c-4-3-10-3-14 0-3 4 0 7 7 7s10-3 7-7zM9028 1293c7-3 16-2 19 1 4 3-2 6-13 5-11 0-14-3-6-6zM9121 1244c0-11 3-14 6-6 3 7 2 16-1 19-3 4-6-2-5-13z"/><path d="M9030 1220c0-5 4-10 9-10 6 0 13 5 16 10 3 6-1 10-9 10-9 0-16-4-16-10zM9095 1210c-3-5-1-10 4-10 6 0 11 5 11 10 0 6-2 10-4 10-3 0-8-4-11-10zM9070 1200c0-7 3-10 7-7 3 4 3 10 0 14-4 3-7 0-7-7zM8860 1191c0-5 6-11 13-14 6-2 5-3-3-2-8 2-23 6-33 10-13 6-16 3-11-9 3-9 12-16 19-16s15-9 18-20 12-20 20-20c19 0 32 61 15 72-18 11-38 10-38-1zM8343 1183c4-3 10-3 14 0 3 4 0 7-7 7s-10-3-7-7zM8314 1172c-14-9-14-42 0-42 6 0 12 11 12 25 1 14 1 25 0 25l-12-8zM9050 1170c0-5 5-10 10-10 6 0 10 5 10 10 0 6-4 10-10 10-5 0-10-4-10-10zM8513 1163c4-3 10-3 14 0 3 4 0 7-7 7s-10-3-7-7zM8502 1119c-41-30-56-54-27-43 8 4 15 11 15 16 0 6 6 5 15-2 8-7 21-10 29-7s17 1 20-6c5-9 7-9 12 1 3 6 12 12 20 12 18 0 18 5-2 35-21 32-31 31-82-6zM9133 1143c4-3 10-3 14 0 3 4 0 7-7 7s-10-3-7-7zM8684 1113c-6-22-15-27-42-24-6 1-20-3-30-8-16-10-16-10 1-11 10 0 20-7 23-15 4-8 17-15 30-15 17 0 22-4 18-15-8-19 13-20 31-1 10 9 11 16 3 24-11 11 16 60 29 54 4-2 9 2 11 8 3 9-1 9-18 0-18-10-24-9-36 7-13 17-14 17-20-4zM9198 1113c7-3 16-2 19 1 4 3-2 6-13 5-11 0-14-3-6-6zM8280 1091c0-5 5-13 10-16 6-3 10-2 10 4 0 5-4 13-10 16-5 3-10 2-10-4zM8865 1080c3-5 10-10 16-10 5 0 9 5 9 10 0 6-7 10-16 10-8 0-12-4-9-10zM9360 1080c0-7 3-10 7-7 3 4 3 10 0 14-4 3-7 0-7-7zM9410 1080c0-7 3-10 7-7 3 4 3 10 0 14-4 3-7 0-7-7z"/><path d="M8514 1057c-18-10-19-14-9-24 10-9 16-8 29 6 28 31 18 40-20 18zM9430 1056c0-2 7-6 15-10 8-3 15-1 15 4 0 6-7 10-15 10s-15-2-15-4zM9530 1050c0-5 7-10 15-10s15 5 15 10c0 6-7 10-15 10s-15-4-15-10zM9390 1040c0-5 5-10 10-10 6 0 10 5 10 10 0 6-4 10-10 10-5 0-10-4-10-10zM9100 1030c0-7 3-10 7-7 3 4 3 10 0 14-4 3-7 0-7-7zM9123 1030c2-8-6-23-17-33l-21-18 22 11c13 6 35 7 49 4 19-5 25-4 20 5-4 6-13 11-21 11s-19 8-25 18c-7 11-10 12-7 2zM9480 1030c0-5 7-7 15-4 8 4 15 8 15 10s-7 4-15 4-15-4-15-10zM8620 1020c0-5 5-10 10-10 6 0 10 5 10 10 0 6-4 10-10 10-5 0-10-4-10-10zM9200 1020c0-5 5-10 10-10 6 0 10 5 10 10 0 6-4 10-10 10-5 0-10-4-10-10zM8460 1010c0-7 3-10 7-7 3 4 3 10 0 14-4 3-7 0-7-7zM8383 1003c4-3 10-3 14 0 3 4 0 7-7 7s-10-3-7-7zM8766 1001c-3-5 0-11 8-14s17 1 20 9c6 15-19 20-28 5zM9265 1000c3-5 8-10 11-10 2 0 4 5 4 10 0 6-5 10-11 10-5 0-7-4-4-10zM8913 993c4-3 10-3 14 0 3 4 0 7-7 7s-10-3-7-7zM8437 984c-4-4-7-14-7-23 0-11 3-12 11-4 6 6 10 16 7 23-2 6-7 8-11 4zM8460 970c0-7 3-10 7-7 3 4 3 10 0 14-4 3-7 0-7-7zM8730 970c0-9 25-20 46-20 9 0 13 4 10 9-7 11-56 21-56 11zM9410 970c0-7 3-10 7-7 3 4 3 10 0 14-4 3-7 0-7-7zM9220 955c-6-7-18-11-26-8s-14 0-14-7c0-8 9-10 28-5 32 8 47 20 34 29-5 3-15-1-22-9zM8320 949c0-5 5-7 10-4 6 3 10 8 10 11 0 2-4 4-10 4-5 0-10-5-10-11zM8710 948c0-17 54-51 64-40 12 12 5 22-15 22-12 0-28 8-35 18-12 16-13 16-14 0zM8300 906c0-8 5-18 10-21 6-3 10 1 10 9s-4 18-10 21c-5 3-10-1-10-9zM11723 1643c4-3 10-3 14 0 3 4 0 7-7 7s-10-3-7-7z"/></g><path d="M0 2145V0h12000v4290H0V2145zm10298 1923c65-16 105-42 137-88 44-63 36-68-119-66-74 1-138 5-142 8-3 4-6 35-7 70-1 57 1 64 24 75 30 16 48 16 107 1zm-1160-79c47-46 73-92 60-105-7-6-262-10-266-3-7 8 10 83 25 112 16 32 43 45 94 46 29 1 44-7 87-50zm-940-37c15-20 16-78 0-88-17-11-148-11-148 0 0 5-24 6-55 2l-56-6 22 30c13 16 26 30 31 30 4 0 17 9 28 20 37 37 151 45 178 12zm1049-565c7-11 35-32 88-64 52-32 71-35 170-28 139 9 143 9 149 16 16 15 211-41 228-65 4-6 10-7 13-4 9 8 67-23 125-68 25-19 53-37 63-40 9-4 17-12 17-19s3-15 8-17c4-1 15-20 24-40 17-37 17-38-11-101-19-43-40-72-62-87-79-54-139-138-139-195 0-14-7-36-15-48s-14-31-14-42c-1-41-8-69-19-73-7-2-12-14-12-27 0-12-7-28-15-35s-15-20-15-29c0-25-88-115-135-139-32-16-56-19-120-17-44 1-95 6-112 10-29 7-33 12-33 40 0 17-3 35-7 39-4 3-8 13-9 21-3 23-26 89-34 100-24 31-50 89-50 110 0 15-6 25-15 25-8 0-26 20-40 44-14 23-50 69-80 100s-55 61-55 66c0 6-4 10-8 10-5 0-32 23-60 50-28 28-55 50-59 50-5 0-24 13-43 28-19 16-46 35-59 41-19 11-22 18-17 44 4 18 7 39 8 47 3 34 62 125 114 176 31 30 59 54 62 54 4 0 20 14 36 31s39 35 50 39c32 13 74 12 83-3zm-962-273c8-4 22-19 30-35 15-29 49-32 38-3-3 8-1 14 5 14 5 0 12-7 16-15 8-21 26-19 26 4 0 19 25 35 40 26 19-12 1-40-31-48s-33-10-15-23c18-12 18-15 2-39-18-27-36-33-36-12 0 24-80 99-106 101-13 0-24 7-24 14s4 11 9 7c5-3 12-1 16 5 7 12 8 12 30 4zm231-91c-10-10-19 5-10 18 6 11 8 11 12 0 2-7 1-15-2-18zm-53-43c3-12 1-17-5-14-5 3-16-2-23-12-17-23-19-4-4 30 13 28 24 27 32-4zm87 26c0-2-7-9-15-16-12-10-15-10-15 4 0 9 7 16 15 16s15-2 15-4zm-1026-21c-25-19-40-19-24 0 7 8 20 15 28 15 13 0 12-3-4-15zm765-39c-3-3-11 5-18 17-13 21-12 21 5 5 10-10 16-20 13-22zm57 18c-3-9-6-20-6-25s-5-9-12-9c-6 0-8 3-5 6 3 4 2 15-4 25-8 16-6 19 12 19 15 0 19-4 15-16zm-802-18c-3-7-16-13-29-13-14 0-22 4-19 9s12 7 20 4 14-1 14 4c0 6 4 10 10 10 5 0 7-6 4-14zm844-14c15-15 17-24 8-43l-10-24-4 30c-2 16-11 35-20 42-11 8-12 12-4 13 6 0 20-8 30-18zm-1062-39c-2-14-12-34-22-42-27-22-64-88-59-104 8-20-11-41-30-33-13 5-16 13-10 34 3 15 7 38 7 52s3 19 5 13c5-13 53 37 53 55 0 16 41 63 50 57 5-3 7-17 6-32zm1264 17c0-9-31-23-37-16-3 3 1 11 8 19 14 15 29 13 29-3zm-1210 0c0-5-8-10-17-10-15 0-16 2-3 10 19 12 20 12 20 0zm1080-74c0-3-4-8-10-11-5-3-10-1-10 4 0 6 5 11 10 11 6 0 10-2 10-4zm167-13c-4-3-10-3-14 0-3 4 0 7 7 7s10-3 7-7zm-1452-72c7-12-12-24-25-16-11 7-4 25 10 25 5 0 11-4 15-9zm3712-353c37-14 48-34 34-69-4-13-12-49-16-79-11-73-11-75-29-145-20-78-71-201-83-198-5 1-10-10-11-24-1-15-13-41-27-59s-25-36-25-39c0-17-95-148-145-200-30-32-57-65-60-74-7-19-118-111-134-111-6 0-20-13-32-29s-38-37-57-48c-20-10-45-26-56-35-11-10-30-18-43-18s-23-5-23-10c0-12-71-56-84-52-5 2-16-4-25-12s-34-19-56-25c-35-9-42-8-59 9-24 23-57 108-46 115 5 3 8 19 8 35-1 18 8 40 20 53s22 29 22 37c0 7 5 28 12 46 16 44-8 133-67 254-19 38-13 160 9 202 10 19 49 56 87 84 38 27 81 59 95 71 15 13 30 20 35 17s6 2 3 11c-4 8-2 21 3 28 11 13 21 58 29 126 5 36 14 53 50 88 53 51 50 50 305 39 83-4 127-2 160 8 56 18 162 20 206 4zm910-274c56-11 181-180 154-207-6-6-7-15-2-21 11-15 22-91 14-99-3-4-8-21-10-39-2-17-7-36-11-42-5-6-19-42-32-81-37-115-51-127-87-82-16 21-104 85-154 113-11 6-32 25-48 43-15 17-32 31-38 31-13 0-54 54-72 95-7 17-12 30-11 30s-3 11-8 25c-11 29 5 111 26 132 7 7 12 16 12 21 0 23 79 74 135 87 28 7 80 5 132-6zm-2727-441c81-25 200-87 230-118 24-26 24-28-15-90-14-22-32-56-40-74-9-19-27-49-40-67-14-18-25-38-25-44s-7-13-15-16c-20-8-31-70-15-89 7-8 27-15 44-15 18 0 36-4 42-10 5-5 21-11 34-14 14-2 27-5 30-6 3-2 9-2 13-1s16-3 26-9c10-5 47-12 82-15 68-6 125-17 174-33 17-6 57-18 90-28 64-18 67-19 135-64 25-16 53-30 63-30 11 0 17-6 14-12-2-8-17-12-38-10-28 2-97 7-214 14-25 2-175-12-195-17-8-2-62-7-120-10-105-5-189-14-202-21-4-3-46-6-95-9-48-2-99-6-113-9-25-4-130-14-225-21-27-2-102-9-165-15-150-15-209-15-221-3-11 11-30 170-22 190 3 7 0 20-7 28-8 9-9 28-5 53 3 22 7 53 7 71 1 17 5 34 10 37 4 3 6 15 3 27-6 25 46 180 73 217 10 14 22 37 26 53 4 18 13 27 26 27s24 10 30 25c5 14 15 25 22 25s24 9 38 20 33 20 42 20c10 0 37 11 61 24 24 14 53 25 63 25 24 0 52 5 59 12 3 3 65 5 138 4 100-2 148-7 197-22zm-1153-308c11-8 23-27 26-42 7-37-11-134-29-154-8-8-14-20-14-26 0-14-39-48-77-67-70-35-158-9-232 69-86 92-92 195-11 195 32 0 38-7 74-76 18-35 38-57 65-71l39-21 27 28c15 15 27 32 27 37 2 36 31 109 52 125 26 21 27 21 53 3z" fill="#a73833"/><g fill="#645a69"><path d="M0 2145V0h12000v4290H0V2145zm10298 1923c65-16 105-42 137-88 44-63 36-68-119-66-74 1-138 5-142 8-3 4-6 35-7 70-1 57 1 64 24 75 30 16 48 16 107 1zm-1160-79c47-46 73-92 60-105-7-6-262-10-266-3-7 8 10 83 25 112 16 32 43 45 94 46 29 1 44-7 87-50zm-940-37c15-20 16-78 0-88-17-11-148-11-148 0 0 5-24 6-55 2l-56-6 22 30c13 16 26 30 31 30 4 0 17 9 28 20 37 37 151 45 178 12zm1049-565c7-11 35-32 88-64 52-32 71-35 170-28 139 9 143 9 149 16 16 15 211-41 228-65 4-6 10-7 13-4 9 8 67-23 125-68 25-19 53-37 63-40 9-4 17-12 17-19s3-15 8-17c4-1 15-20 24-40 17-37 17-38-11-101-19-43-40-72-62-87-79-54-139-138-139-195 0-14-7-36-15-48s-14-31-14-42c-1-41-8-69-19-73-7-2-12-14-12-27 0-12-7-28-15-35s-15-20-15-29c0-25-88-115-135-139-32-16-56-19-120-17-44 1-95 6-112 10-29 7-33 12-33 40 0 17-3 35-7 39-4 3-8 13-9 21-3 23-26 89-34 100-24 31-50 89-50 110 0 15-6 25-15 25-8 0-26 20-40 44-14 23-50 69-80 100s-55 61-55 66c0 6-4 10-8 10-5 0-32 23-60 50-28 28-55 50-59 50-5 0-24 13-43 28-19 16-46 35-59 41-19 11-22 18-17 44 4 18 7 39 8 47 3 34 62 125 114 176 31 30 59 54 62 54 4 0 20 14 36 31s39 35 50 39c32 13 74 12 83-3zm-897-262c58-6 151-24 170-32 8-4 20-8 25-8 6-1 23-7 38-13 16-7 33-12 38-12s19-5 32-12c12-6 29-14 37-18 24-12 22-108-3-145-34-50-70-86-102-100-81-37-140-26-214 38-82 70-132 163-157 289-6 31-17 30 136 13zm-764-147c-4-72-9-92-42-153-39-73-92-132-134-152-14-6-50-16-81-22-50-11-60-10-85 6-67 42-112 80-127 105-15 27-15 29 11 57 27 29 233 171 249 171 4 0 35 11 68 24 154 61 147 62 141-36zm3301-580c37-14 48-34 34-69-4-13-12-49-16-79-11-73-11-75-29-145-20-78-71-201-83-198-5 1-10-10-11-24-1-15-13-41-27-59s-25-36-25-39c0-17-95-148-145-200-30-32-57-65-60-74-7-19-118-111-134-111-6 0-20-13-32-29s-38-37-57-48c-20-10-45-26-56-35-11-10-30-18-43-18s-23-5-23-10c0-12-71-56-84-52-5 2-16-4-25-12s-34-19-56-25c-35-9-42-8-59 9-24 23-57 108-46 115 5 3 8 19 8 35-1 18 8 40 20 53s22 29 22 37c0 7 5 28 12 46 16 44-8 133-67 254-19 38-13 160 9 202 10 19 49 56 87 84 38 27 81 59 95 71 15 13 30 20 35 17s6 2 3 11c-4 8-2 21 3 28 11 13 21 58 29 126 5 36 14 53 50 88 53 51 50 50 305 39 83-4 127-2 160 8 56 18 162 20 206 4zm910-274c56-11 181-180 154-207-6-6-7-15-2-21 11-15 22-91 14-99-3-4-8-21-10-39-2-17-7-36-11-42-5-6-19-42-32-81-37-115-51-127-87-82-16 21-104 85-154 113-11 6-32 25-48 43-15 17-32 31-38 31-13 0-54 54-72 95-7 17-12 30-11 30s-3 11-8 25c-11 29 5 111 26 132 7 7 12 16 12 21 0 23 79 74 135 87 28 7 80 5 132-6zm-2727-441c81-25 200-87 230-118 24-26 24-28-15-90-14-22-32-56-40-74-9-19-27-49-40-67-14-18-25-38-25-44s-7-13-15-16c-20-8-31-70-15-89 7-8 27-15 44-15 18 0 36-4 42-10 5-5 21-11 34-14 14-2 27-5 30-6 3-2 9-2 13-1s16-3 26-9c10-5 47-12 82-15 68-6 125-17 174-33 17-6 57-18 90-28 64-18 67-19 135-64 25-16 53-30 63-30 11 0 17-6 14-12-2-8-17-12-38-10-28 2-97 7-214 14-25 2-175-12-195-17-8-2-62-7-120-10-105-5-189-14-202-21-4-3-46-6-95-9-48-2-99-6-113-9-25-4-130-14-225-21-27-2-102-9-165-15-150-15-209-15-221-3-11 11-30 170-22 190 3 7 0 20-7 28-8 9-9 28-5 53 3 22 7 53 7 71 1 17 5 34 10 37 4 3 6 15 3 27-6 25 46 180 73 217 10 14 22 37 26 53 4 18 13 27 26 27s24 10 30 25c5 14 15 25 22 25s24 9 38 20 33 20 42 20c10 0 37 11 61 24 24 14 53 25 63 25 24 0 52 5 59 12 3 3 65 5 138 4 100-2 148-7 197-22zm-1153-308c11-8 23-27 26-42 7-37-11-134-29-154-8-8-14-20-14-26 0-14-39-48-77-67-70-35-158-9-232 69-86 92-92 195-11 195 32 0 38-7 74-76 18-35 38-57 65-71l39-21 27 28c15 15 27 32 27 37 2 36 31 109 52 125 26 21 27 21 53 3z"/><path d="M9045 4010c-3-5-1-10 4-10 6 0 11 5 11 10 0 6-2 10-4 10-3 0-8-4-11-10zM9164 3308c-4-7-3-8 4-4s12 9 12 12c0 8-9 4-16-8zM9803 3223c4-3 10-3 14 0 3 4 0 7-7 7s-10-3-7-7zM9183 2953c4-3 10-3 14 0 3 4 0 7-7 7s-10-3-7-7zM9525 2764c-11-12-13-20-6-27 8-8 15-5 26 9 26 35 11 49-20 18zM9443 2683c4-3 10-3 14 0 3 4 0 7-7 7s-10-3-7-7zM9435 2660c-3-5-1-10 4-10 6 0 11 5 11 10 0 6-2 10-4 10-3 0-8-4-11-10zM9370 2650c0-5 5-10 11-10 5 0 7 5 4 10-3 6-8 10-11 10-2 0-4-4-4-10zM9335 2640c-3-5-1-10 4-10 6 0 11 5 11 10 0 6-2 10-4 10-3 0-8-4-11-10zM9610 2590c0-7 3-10 7-7 3 4 3 10 0 14-4 3-7 0-7-7zM10165 2050c3-5 8-10 11-10s2 5-1 10c-3 6-8 10-11 10s-2-4 1-10zM9930 1800c0-7 3-10 7-7 3 4 3 10 0 14-4 3-7 0-7-7zM10093 1523c4-3 10-3 14 0 3 4 0 7-7 7s-10-3-7-7zM10060 1295c0-5 5-17 10-25s10-10 10-5c0 6-5 17-10 25s-10 11-10 5zM11896 1971c-4-7-5-15-2-18 9-9 19 4 14 18-4 11-6 11-12 0zM11878 1933c7-3 16-2 19 1 4 3-2 6-13 5-11 0-14-3-6-6zM11805 1900c3-5 8-10 11-10 2 0 4 5 4 10 0 6-5 10-11 10-5 0-7-4-4-10zM11770 1890c0-7 3-10 7-7 3 4 3 10 0 14-4 3-7 0-7-7zM11748 1853c7-3 16-2 19 1 4 3-2 6-13 5-11 0-14-3-6-6zM11655 1760c3-5 15-10 26-10s17 5 14 10c-3 6-15 10-26 10s-17-4-14-10zM11790 1729c0-5 5-7 10-4 6 3 10 8 10 11 0 2-4 4-10 4-5 0-10-5-10-11zM11850 1715c0-8 4-15 9-15s11 7 15 15c3 9 0 15-9 15-8 0-15-7-15-15zM11881 1664c0-11 3-14 6-6 3 7 2 16-1 19-3 4-6-2-5-13zM11800 1640c0-7 3-10 7-7 3 4 3 10 0 14-4 3-7 0-7-7zM11743 1623c4-3 10-3 14 0 3 4 0 7-7 7s-10-3-7-7zM8820 1633c5-2 8-9 5-13-3-5 0-12 6-15 7-5 10-1 7 10-1 10-9 20-16 21s-8 0-2-3zM8684 1508c-4-7-3-8 4-4 12 7 16 16 8 16-3 0-8-5-12-12zM8550 1110c0-6 7-10 15-10s15 2 15 4-7 6-15 10c-8 3-15 1-15-4zM8980 1100c0-7 3-10 7-7 3 4 3 10 0 14-4 3-7 0-7-7zM8660 1060c0-7 3-10 7-7 3 4 3 10 0 14-4 3-7 0-7-7zM8373 1043c4-3 10-3 14 0 3 4 0 7-7 7s-10-3-7-7zM9013 1023c4-3 10-3 14 0 3 4 0 7-7 7s-10-3-7-7z"/></g><path d="M0 2145V0h12000v4290H0V2145zm10298 1933c26-6 58-18 72-26 28-17 110-100 110-112 0-4-8-14-18-24-14-12-29-15-58-10-21 3-48 6-59 6-126-4-168-2-178 6-7 6-12 35-11 73 1 59 3 65 30 81 34 21 49 22 112 6zm-1158-78c58-59 86-105 69-116-6-4-66-8-133-9-67-2-128-5-136-7-12-2-14 7-13 45 3 57 42 123 75 130 70 13 86 8 138-43zm-936-43c9-12 14-40 13-62l-3-40-55-2c-104-3-124-3-171 3-27 3-48 10-48 14s20 28 44 53c45 47 61 53 153 56 44 1 55-3 67-22zm1074-590c26-18 68-43 93-55 49-24 61-24 227-3 38 5 82 7 98 5 78-12 142-29 166-46 14-10 32-18 40-18 15 0 64-29 133-77 25-18 49-33 53-33 7 0 16-15 47-80 14-30 15-41 4-75-15-45-55-115-67-115-5 0-29-19-55-42-52-48-97-126-97-169 0-15-4-30-9-33-4-3-11-28-15-55-3-27-13-54-21-61s-15-23-15-35c0-30-17-60-64-119-53-64-118-96-199-98-70-1-165 10-171 21-3 4-7 25-10 47-5 47-43 153-62 175-8 8-14 22-15 30 0 8-8 26-17 40-118 181-217 285-379 399-46 32-63 50-63 66 0 13 5 26 10 29 6 3 10 17 10 30s5 27 10 30c6 3 10 12 10 20s10 29 23 47c23 33 115 128 125 128 2 0 24 18 48 40 56 52 95 54 162 7zm-928-242c58-6 151-24 170-32 8-4 20-8 25-8 6-1 23-7 38-13 16-7 33-12 38-12s19-5 32-12c12-6 29-14 37-18 24-12 22-108-3-145-34-50-70-86-102-100-81-37-140-26-214 38-82 70-132 163-157 289-6 31-17 30 136 13zm-764-147c-4-72-9-92-42-153-39-73-92-132-134-152-14-6-50-16-81-22-50-11-60-10-85 6-67 42-112 80-127 105-15 27-15 29 11 57 27 29 233 171 249 171 4 0 35 11 68 24 154 61 147 62 141-36zm3297-574c48-16 58-32 46-74-4-14-15-70-25-125-9-55-19-104-23-110-3-5-7-21-9-35-2-13-21-61-43-105-21-44-39-84-39-89 0-4-10-22-22-39-13-18-23-35-23-39 0-14-137-199-150-205-8-3-27-24-42-47s-48-60-73-81c-25-22-51-46-58-53-7-6-17-12-22-12s-22-12-37-26c-57-53-238-164-267-164-8 0-19-7-26-15s-21-15-31-15c-11 0-28-5-39-12-16-10-23-9-44 11-56 53-64 175-15 227 11 11 19 25 18 30s1 22 6 38c12 43-32 214-68 263-11 15-12 97-2 152 6 37 18 55 67 102 34 31 72 63 87 70 63 32 85 68 107 176 18 84 48 134 95 159 22 11 53 13 141 8 62-3 129-7 148-7 45-2 126 9 165 22 47 15 127 13 178-5zm930-283c38-20 118-105 135-145 24-55 24-171 1-249-12-40-22-76-24-82-1-5-12-30-23-55-12-25-22-51-22-57 0-21-25-15-55 13-15 14-42 35-60 47-72 49-127 90-162 122-21 19-41 35-45 35-5 0-8 5-8 11s-11 24-25 41c-94 112-24 286 135 334 44 13 111 6 153-15zm-2758-428c81-20 201-78 246-119 20-18 26-59 10-68-9-6-71-129-71-142 0-6-32-47-75-96-8-10-15-29-15-41 0-25 32-62 43-51 3 4 25-1 48-10 22-9 55-19 72-21 18-3 43-7 57-10s45-7 70-9c25-3 56-9 70-14s31-7 37-5c7 3 23-3 35-11 12-9 32-16 43-16 22 0 91-23 101-33 4-4 15-7 24-7 10 0 23-7 30-15s20-15 30-15c9 0 25-9 35-20s26-20 35-20 25-9 36-21l18-20-159 5c-88 4-207 2-265-4s-154-13-215-16c-60-3-113-8-117-10-4-3-58-9-120-15-62-5-185-16-273-25-88-8-189-17-225-20-36-2-103-8-150-12-90-10-118-1-119 36 0 10-3 40-6 67-12 109-13 164-4 255 12 110 23 158 50 217 10 24 19 47 19 51 0 5 9 17 19 26 11 10 22 28 25 41 3 12 15 25 27 28 11 3 23 14 25 24 3 10 15 23 27 29s36 18 52 27c102 53 144 65 270 76 94 8 187 2 260-16zm-1136-312c32-20 47-140 20-157-5-3-9-13-9-23 0-9-21-41-47-69-44-47-53-53-106-61-66-9-105 5-173 63-48 41-95 132-87 167 13 56 79 67 112 20 12-16 21-33 21-38 1-14 43-60 67-72 55-28 87 3 108 104 7 37 16 53 35 62 30 15 40 16 59 4z" fill="#faba01"/><path d="M0 2145V0h12000v4290H0V2145zm10298 1933c26-6 58-18 72-26 28-17 110-100 110-112 0-4-8-14-18-24-14-12-29-15-58-10-21 3-48 6-59 6-126-4-168-2-178 6-7 6-12 35-11 73 1 59 3 65 30 81 34 21 49 22 112 6zm-1158-78c58-59 86-105 69-116-6-4-66-8-133-9-67-2-128-5-136-7-12-2-14 7-13 45 3 57 42 123 75 130 70 13 86 8 138-43zm-936-43c9-12 14-40 13-62l-3-40-55-2c-104-3-124-3-171 3-27 3-48 10-48 14s20 28 44 53c45 47 61 53 153 56 44 1 55-3 67-22zm1074-590c26-18 68-43 93-55 49-24 61-24 227-3 38 5 82 7 98 5 78-12 142-29 166-46 14-10 32-18 40-18 15 0 64-29 133-77 25-18 49-33 53-33 7 0 16-15 47-80 14-30 15-41 4-75-15-45-55-115-67-115-5 0-29-19-55-42-52-48-97-126-97-169 0-15-4-30-9-33-4-3-11-28-15-55-3-27-13-54-21-61s-15-23-15-35c0-30-17-60-64-119-53-64-118-96-199-98-70-1-165 10-171 21-3 4-7 25-10 47-5 47-43 153-62 175-8 8-14 22-15 30 0 8-8 26-17 40-118 181-217 285-379 399-46 32-63 50-63 66 0 13 5 26 10 29 6 3 10 17 10 30s5 27 10 30c6 3 10 12 10 20s10 29 23 47c23 33 115 128 125 128 2 0 24 18 48 40 56 52 95 54 162 7zm-928-242c58-6 151-24 170-32 8-4 20-8 25-8 6-1 23-7 38-13 16-7 33-12 38-12s19-5 32-12c12-6 29-14 37-18 24-12 22-108-3-145-34-50-70-86-102-100-81-37-140-26-214 38-82 70-132 163-157 289-6 31-17 30 136 13zm-764-147c-4-72-9-92-42-153-39-73-92-132-134-152-14-6-50-16-81-22-50-11-60-10-85 6-67 42-112 80-127 105-15 27-15 29 11 57 27 29 233 171 249 171 4 0 35 11 68 24 154 61 147 62 141-36zm3297-574c48-16 58-32 46-74-4-14-15-70-25-125-9-55-19-104-23-110-3-5-7-21-9-35-2-13-21-61-43-105-21-44-39-84-39-89 0-4-10-22-22-39-13-18-23-35-23-39 0-14-137-199-150-205-8-3-27-24-42-47s-48-60-73-81c-25-22-51-46-58-53-7-6-17-12-22-12s-22-12-37-26c-57-53-238-164-267-164-8 0-19-7-26-15s-21-15-31-15c-11 0-28-5-39-12-16-10-23-9-44 11-56 53-64 175-15 227 11 11 19 25 18 30s1 22 6 38c12 43-32 214-68 263-11 15-12 97-2 152 6 37 18 55 67 102 34 31 72 63 87 70 63 32 85 68 107 176 18 84 48 134 95 159 22 11 53 13 141 8 62-3 129-7 148-7 45-2 126 9 165 22 47 15 127 13 178-5zm930-283c38-20 118-105 135-145 24-55 24-171 1-249-12-40-22-76-24-82-1-5-12-30-23-55-12-25-22-51-22-57 0-21-25-15-55 13-15 14-42 35-60 47-72 49-127 90-162 122-21 19-41 35-45 35-5 0-8 5-8 11s-11 24-25 41c-94 112-24 286 135 334 44 13 111 6 153-15zm-2758-428c81-20 201-78 246-119 20-18 26-59 10-68-9-6-71-129-71-142 0-6-32-47-75-96-8-10-15-29-15-41 0-25 32-62 43-51 3 4 25-1 48-10 22-9 55-19 72-21 18-3 43-7 57-10s45-7 70-9c25-3 56-9 70-14s31-7 37-5c7 3 23-3 35-11 12-9 32-16 43-16 22 0 91-23 101-33 4-4 15-7 24-7 10 0 23-7 30-15s20-15 30-15c9 0 25-9 35-20s26-20 35-20 25-9 36-21l18-20-159 5c-88 4-207 2-265-4s-154-13-215-16c-60-3-113-8-117-10-4-3-58-9-120-15-62-5-185-16-273-25-88-8-189-17-225-20-36-2-103-8-150-12-90-10-118-1-119 36 0 10-3 40-6 67-12 109-13 164-4 255 12 110 23 158 50 217 10 24 19 47 19 51 0 5 9 17 19 26 11 10 22 28 25 41 3 12 15 25 27 28 11 3 23 14 25 24 3 10 15 23 27 29s36 18 52 27c102 53 144 65 270 76 94 8 187 2 260-16zm-1136-312c32-20 47-140 20-157-5-3-9-13-9-23 0-9-21-41-47-69-44-47-53-53-106-61-66-9-105 5-173 63-48 41-95 132-87 167 13 56 79 67 112 20 12-16 21-33 21-38 1-14 43-60 67-72 55-28 87 3 108 104 7 37 16 53 35 62 30 15 40 16 59 4zm1190-650c0-53-5-104-11-114-6-13-6-23 3-33 8-10 9-21 0-41-6-16-10-44-9-63 3-48-12-149-23-156-5-3-9-15-9-28 0-24-17-46-37-46-30 0-133 149-218 315-25 49-52 97-60 105-8 9-15 23-15 31s-4 19-9 25c-4 5-11 21-15 35-8 35 6 40 114 45 47 2 126 10 175 17 50 7 96 11 103 9 9-3 12-31 11-101zM8045 595c0-129-3-164-24-281-15-83-47-154-70-154-25 0-92 54-116 94-11 18-41 60-67 92-27 32-48 66-48 74s-11 27-25 42-25 31-25 36c0 12-28 108-41 141-13 32-2 42 63 53 53 9 65 10 193 22 38 4 71 9 73 11s23 3 46 2l41-2V595z" fill="#e97d64"/><path d="M0 2145V0h12000v4290H0V2145zm10298 1933c26-6 58-18 72-26 28-17 110-100 110-112 0-4-8-14-18-24-14-12-29-15-58-10-21 3-48 6-59 6-126-4-168-2-178 6-7 6-12 35-11 73 1 59 3 65 30 81 34 21 49 22 112 6zm-1158-78c58-59 86-105 69-116-6-4-66-8-133-9-67-2-128-5-136-7-12-2-14 7-13 45 3 57 42 123 75 130 70 13 86 8 138-43zm-936-43c9-12 14-40 13-62l-3-40-55-2c-104-3-124-3-171 3-27 3-48 10-48 14s20 28 44 53c45 47 61 53 153 56 44 1 55-3 67-22zm1074-590c26-18 68-43 93-55 49-24 61-24 227-3 38 5 82 7 98 5 78-12 142-29 166-46 14-10 32-18 40-18 15 0 64-29 133-77 25-18 49-33 53-33 7 0 16-15 47-80 14-30 15-41 4-75-15-45-55-115-67-115-5 0-29-19-55-42-52-48-97-126-97-169 0-15-4-30-9-33-4-3-11-28-15-55-3-27-13-54-21-61s-15-23-15-35c0-30-17-60-64-119-53-64-118-96-199-98-70-1-165 10-171 21-3 4-7 25-10 47-5 47-43 153-62 175-8 8-14 22-15 30 0 8-8 26-17 40-118 181-217 285-379 399-46 32-63 50-63 66 0 13 5 26 10 29 6 3 10 17 10 30s5 27 10 30c6 3 10 12 10 20s10 29 23 47c23 33 115 128 125 128 2 0 24 18 48 40 56 52 95 54 162 7zm-923-241c66-10 149-26 165-33 8-4 20-8 25-8 6-1 23-7 38-13 16-7 33-12 38-12s17-4 27-9c28-15 90-41 97-41 4 0 30-15 58-34 29-18 80-50 115-70 34-21 62-41 62-46s16-17 35-26c20-9 40-24 45-33 4-9 31-40 60-69 46-48 90-108 90-123 0-4-10-7-22-6-21 0-86-11-198-34-25-5-72-11-105-14s-84-10-114-16-64-12-76-14c-12-1-27-5-32-8-12-8-131-19-223-22-36-1-90-4-120-8-61-8-156-16-240-22-30-3-73-7-95-10s-69-8-105-11-92-11-125-19c-33-7-96-17-140-21-84-8-94-9-110-14-30-8-116-20-190-26-38-3-88-8-110-10s-120-7-217-10c-150-5-179-4-183 8-8 19 32 124 60 163 13 17 32 48 43 70 18 35 133 160 219 237 35 32 238 168 250 168 4 0 35 11 68 24 65 26 228 77 260 82 11 1 54 8 95 13 41 6 97 14 124 18 56 9 369 8 431-1zm2528-722c48-16 58-32 46-74-4-14-15-70-25-125-9-55-19-104-23-110-3-5-7-21-9-35-2-13-21-61-43-105-21-44-39-84-39-89 0-4-10-22-22-39-13-18-23-35-23-39 0-14-137-199-150-205-8-3-27-24-42-47s-48-60-73-81c-25-22-51-46-58-53-7-6-17-12-22-12s-22-12-37-26c-57-53-238-164-267-164-8 0-19-7-26-15s-21-15-31-15c-11 0-28-5-39-12-16-10-23-9-44 11-56 53-64 175-15 227 11 11 19 25 18 30s1 22 6 38c12 43-32 214-68 263-11 15-12 97-2 152 6 37 18 55 67 102 34 31 72 63 87 70 63 32 85 68 107 176 18 84 48 134 95 159 22 11 53 13 141 8 62-3 129-7 148-7 45-2 126 9 165 22 47 15 127 13 178-5zm930-283c38-20 118-105 135-145 24-55 24-171 1-249-12-40-22-76-24-82-1-5-12-30-23-55-12-25-22-51-22-57 0-21-25-15-55 13-15 14-42 35-60 47-72 49-127 90-162 122-21 19-41 35-45 35-5 0-8 5-8 11s-11 24-25 41c-94 112-24 286 135 334 44 13 111 6 153-15zm-2758-428c81-20 201-78 246-119 20-18 26-59 10-68-9-6-71-129-71-142 0-6-32-47-75-96-8-10-15-29-15-41 0-25 32-62 43-51 3 4 25-1 48-10 22-9 55-19 72-21 18-3 43-7 57-10s45-7 70-9c25-3 56-9 70-14s31-7 37-5c7 3 23-3 35-11 12-9 32-16 43-16 22 0 91-23 101-33 4-4 15-7 24-7 10 0 23-7 30-15s20-15 30-15c9 0 25-9 35-20s26-20 35-20 25-9 36-21l18-20-159 5c-88 4-207 2-265-4s-154-13-215-16c-60-3-113-8-117-10-4-3-58-9-120-15-62-5-185-16-273-25-88-8-189-17-225-20-36-2-103-8-150-12-90-10-118-1-119 36 0 10-3 40-6 67-12 109-13 164-4 255 12 110 23 158 50 217 10 24 19 47 19 51 0 5 9 17 19 26 11 10 22 28 25 41 3 12 15 25 27 28 11 3 23 14 25 24 3 10 15 23 27 29s36 18 52 27c102 53 144 65 270 76 94 8 187 2 260-16zm-1136-312c32-20 47-140 20-157-5-3-9-13-9-23 0-9-21-41-47-69-44-47-53-53-106-61-66-9-105 5-173 63-48 41-95 132-87 167 13 56 79 67 112 20 12-16 21-33 21-38 1-14 43-60 67-72 55-28 87 3 108 104 7 37 16 53 35 62 30 15 40 16 59 4zm1190-650c0-53-5-104-11-114-6-13-6-23 3-33 8-10 9-21 0-41-6-16-10-44-9-63 3-48-12-149-23-156-5-3-9-15-9-28 0-24-17-46-37-46-30 0-133 149-218 315-25 49-52 97-60 105-8 9-15 23-15 31s-4 19-9 25c-4 5-11 21-15 35-8 35 6 40 114 45 47 2 126 10 175 17 50 7 96 11 103 9 9-3 12-31 11-101zM8045 595c0-129-3-164-24-281-15-83-47-154-70-154-25 0-92 54-116 94-11 18-41 60-67 92-27 32-48 66-48 74s-11 27-25 42-25 31-25 36c0 12-28 108-41 141-13 32-2 42 63 53 53 9 65 10 193 22 38 4 71 9 73 11s23 3 46 2l41-2V595z" fill="#a99c8d"/><g fill="#b0a496"><path d="M0 2145V0h12000v4290H0V2145zm10318 1989c22-15 22-17 6-35-16-17-16-19-1-19 10 0 17 7 17 15s9 15 20 15 20-4 20-10c0-5 6-10 13-10 6 0 19-5 27-10 13-8 13-11 1-19-18-12-7-41 19-48 11-3 18-9 15-13-8-13 9-20 24-10 16 9 6 30-15 30-8 0-14 5-14 10 0 19 18 10 45-21 22-27 25-39 21-78-4-35-2-42 5-28 10 18 11 18 25 0 19-25 17-33-6-33-10 0-30 12-44 27-19 20-28 24-38 16-9-8-62-10-159-7l-146 4-1-39c-1-22 3-43 8-46 6-4 7-13 1-23-5-9-7-45-5-80 4-62 3-63-20-60-13 1-31-3-40-11-14-12-19-11-34 2-15 14-22 14-42 4-27-14-59-11-61 4-6 31-3 34 34 31 21-2 56-1 77 3 37 6 40 10 46 46 4 21 10 39 15 39s9 7 9 15c0 18-16 20-24 3-3-7-6 14-6 47s-3 85-5 115c-3 30-2 74 1 97 4 35 11 45 37 59 18 9 50 18 72 21s42 7 44 9c10 9 38 3 59-12zm-1198-50c10-2 16-17 17-40 0-20 6-41 13-47 6-7 11-7 10-2-5 26 1 56 10 50 6-4 8-16 4-27-5-17-3-19 15-13 15 5 23 1 28-12 3-10 13-26 21-35 14-16 13-18-6-18-15 0-20-5-15-15 3-9 15-15 26-13 16 2 27-8 44-41 14-26 21-51 17-64-4-12-2-17 4-13 7 4 14-8 18-29 3-19 10-38 15-41 15-9 11-64-5-64-21 0-35 23-41 65-2 21-11 47-18 59-12 18-12 24 2 45 15 24 15 24-6 19-14-4-24-1-27 8-3 8-1 14 5 14s7 5 4 10c-4 6-11 8-16 4-5-3-51-7-102-9-50-3-119-7-153-10-47-5-63-3-73 9-7 8-19 12-27 9-10-4-14 3-14 28 1 45 21 79 56 95 26 11 27 12 7 13-29 1-30 21-2 21 11 0 18 4 14 9-3 5-1 12 4 16 5 3 14-1 18-9 14-25 53-9 53 21 0 23 2 24 43 18 23-3 49-8 57-11zm-123-21c-4-3-10-3-14 0-3 4 0 7 7 7s10-3 7-7zm1458-3c3-5 4-10 1-10s-8 5-11 10c-3 6-4 10-1 10s8-4 11-10zm-2335-30c-26-17 17-43 59-35 28 5 33 4 28-9-8-20 7-21 23-1 26 31 35-3 37-140 3-128 2-134-17-132-16 1-20 9-20 38 0 20-3 50-6 67-6 28-10 31-53 34-25 3-50 1-56-2-5-4-48-3-94 1-46 5-87 6-91 4-5-3-10 0-12 6-2 7-10-7-18-30-7-22-17-41-22-41s-4 9 1 19c8 14 7 20-5 25-13 5-12 9 5 28 12 12 21 29 21 38 0 26 79 93 110 94 16 1 26-2 23-6-2-5 4-8 15-8 23 0 63 40 41 41-8 0-6 4 6 9 28 12 43 12 25 0zm105-10c3-5 1-10-4-10-6 0-11 5-11 10 0 6 2 10 4 10 3 0 8-4 11-10zm-155-9c0-6-4-13-10-16-5-3-10 1-10 9 0 9 5 16 10 16 6 0 10-4 10-9zm819-177c8-7-11-24-21-18-5 4-2-5 7-20 16-24 14-31-7-27-5 0-8-6-8-15 0-8 5-12 10-9 6 3 10-1 10-9 0-9-6-16-12-17-10 0-10-2 0-6 19-7 14-61-8-83-20-20-56-28-45-10 3 6 2 10-4 10-5 0-12-4-15-9-6-9-77-21-156-27-25-2-81-8-125-14-44-5-87-10-95-10h-70c-30 0-63-3-72-6-13-4-16-1-12 10 4 10 1 16-9 16-26 0-38 69-16 100 8 12 9 8 6-15-4-26-3-27 8-12 18 25 25 21 25-12 0-37 15-42 105-36 39 2 108 7 155 10s97 8 112 11c34 7 56-4 37-18-10-6-7-8 10-6 14 2 26 9 29 17 3 9 0 11-9 7-8-4-5 0 5 8 23 19 46 22 28 4-17-17-15-28 4-28 9 0 32 16 50 36 35 37 38 51 34 152-2 42 0 43 22 37 13-4 25-9 27-11zm1668-10c8 3 21 0 29-8 15-16 19-30 6-22-4 2-14 1-22-4-10-6-18-1-27 17-7 14-12 30-12 37 1 6 3 3 6-7 3-11 10-16 20-13zm-2709-66c-7-13-12-26-13-30 0-5-4-8-10-9-5 0-16-6-23-11-10-9-10-13-1-18 15-10 2-31-15-24-14 5-12 16 10 74 5 14 37 36 57 39 4 0 2-9-5-21zm2772-1c0-7-5-18-12-25-9-9-9-12 0-12 7 0 12 5 12 11 0 8 5 8 15-1 15-13 21-35 8-27-5 3-8-8-8-24 0-20 5-29 17-29 11 0 23-18 37-55 12-31 21-58 21-61 0-6 30-74 71-159 16-33 30-73 31-88s5-27 9-27 9-7 12-14c4-10 1-13-8-10-10 4-12-2-9-25 3-17 3-31 0-31-8 0-45 88-52 125-3 18-15 41-25 51-22 19-25 44-6 44 7 0 4 7-7 15-12 9-15 15-7 15s2 11-13 27c-24 24-25 28-10 36 14 8 13 12-12 33-16 13-23 23-16 24 18 0 15 30-4 30-11 0-14 5-10 17 4 10 4 14 0 11-10-11-39 32-54 82-20 66-19 80 2 80 10 0 18-6 18-13zm-690-78c-11-8-12-12-2-16 24-9 12-21-27-25-28-2-37 0-34 9 3 7-2 13-12 13-11 0-15-6-11-17 4-13 0-18-17-20-12-1-40-4-62-7-76-12-147-9-156 5-8 13-13 6-10-13 0-4-9-10-22-12-89-18-106-15-84 15 9 12 57 23 167 39 85 13 165 24 177 24 12 1 25 4 29 9 4 4 23 7 43 7 28 0 33-3 21-11zm-563-16c-4-3-7 0-7 7s3 10 7 7c3-4 3-10 0-14zm1290 0c-4-3-7 0-7 7s3 10 7 7c3-4 3-10 0-14zm-1291-36c6 2 14-5 17-16 4-18 2-19-14-11-10 6-23 20-29 33-9 19-9 20 2 6 7-9 18-14 24-12zm111-21c-4-14-77-21-77-7 0 15 23 26 28 13 5-17 22-15 22 3 0 9 6 12 15 8 9-3 14-11 12-17zm-1698-8c0-31-43-120-53-111-4 4-4 0 0-10 4-11 1-17-9-17-8 0-17 7-21 15-7 19 10 65 24 65 23 0 49 34 44 57-4 14-2 23 5 23 6 0 11-10 10-22zm-52-25c-4-3-7 0-7 7s3 10 7 7c3-4 3-10 0-14zm-25-180c-9-3-10-9-3-17s7-25 1-47c-21-81-32-148-27-162 7-18 67-28 84-15 7 5 16 7 22 4 5-3 22-1 38 5 44 17 133 20 127 4-8-20 11-26 43-14 28 11 28 11 6 20-31 11-29 14 13 17 21 1 33-2 29-8-8-13 8-13 22 1 6 6 19 9 29 6 17-4 17-6-3-12-13-4-23-11-23-16 0-13 24-11 38 3 10 10 15 10 21-1 6-9 11-10 15-2 4 6 2 11-3 11-6 0-11 5-11 10 0 21 290 4 345-21 11-4 34-10 50-11 24-2 30-7 28-25s2-21 23-17c20 4 27 0 31-16 3-11 13-20 22-20 13 0 13 2 2 9-18 12-5 32 16 24 12-5 14-3 8 8-8 12-6 12 8 0 9-7 14-17 11-22-8-13 10-11 24 3 9 9 15 9 25-1s8-11-7-5c-13 5-17 4-12-4 4-7 2-12-3-12-6 0-11-5-11-11s9-8 20-5 29 9 40 12 20 1 20-5-11-11-25-11-25-5-25-11c0-7 10-9 25-7 14 3 25 1 25-5s6-3 13 8c8 10 19 15 26 11 8-6 9-12 2-20-6-7-8-16-4-19 3-4 11 1 18 9 9 13 16 14 33 5 24-13 27-10 37 43 3 22 13 49 21 60s14 28 14 37c0 19 120 143 195 202 64 50 106 50 169 2 26-19 51-35 56-35 6 0 22-7 35-16 28-18 118-20 199-5 100 19 237-1 303-45 12-8 29-14 36-14 15 0 140-80 146-93 2-5 14-12 27-17s24-16 24-25c0-8 4-15 8-15 15 0 35-76 27-101-18-59-48-117-65-125-29-14-95-78-117-115-12-19-25-52-28-74-4-22-12-46-18-53-5-7-14-33-18-59-5-25-16-55-25-64-9-10-14-25-10-34 7-19-5-45-48-100-82-105-160-134-308-115-33 4-58 2-78-8-29-14-29-15-10-31 16-13 20-32 24-113 2-54 0-100-5-104-5-3-9 4-9 15 0 13-7 21-17 21-14 0-15 2-4 9 9 6 10 11 2 15-17 11-13 23 12 31 19 6 20 8 4 12-15 4-16 7-6 20 10 12 10 16 0 23-8 4-13 19-13 34 0 14-4 26-9 26s-9 7-9 15-4 15-10 15c-13 0-13 40 0 60 5 8 12 11 17 7 4-5 1-12-7-17-12-7-12-12-2-22 17-17 32 2 21 30-5 13-17 22-30 22-12 0-19 5-16 13 2 6-6 27-19 46-25 36-18 66 12 54 12-4 14 0 8 23-9 39-13 44-30 44-8 0-13 4-10 9s-1 14-9 21c-7 6-11 18-9 25 10 25-13 53-39 48-17-3-26 1-31 13-4 11-2 20 3 22 6 2 11 8 11 13 0 6-4 7-10 4-5-3-10-1-10 4 0 6-6 11-14 11-10 0-13-9-9-34 4-30 2-34-19-33-21 0-85-10-198-34-25-5-72-11-105-14s-84-10-114-16-64-12-76-14c-12-1-27-5-32-8-12-8-131-19-223-22-36-1-90-4-120-8-61-8-156-16-240-22-30-3-73-7-95-10s-69-8-105-11-92-11-125-19c-33-7-96-17-140-21-84-8-94-9-110-14-30-8-116-20-190-26-38-3-88-8-110-10-22-3-125-7-230-9-140-3-192-8-197-17-4-7-13-68-21-135-11-93-19-128-35-148l-21-27 5 104c2 57 6 112 8 123 15 102 20 126 27 131 5 3 9 14 9 25 0 26 34 87 70 125 17 19 28 39 24 47-6 18 10 30 43 31 18 1 29 10 39 34 12 31 12 33-4 30-9-2-16-10-14-17 1-7-2-10-8-6-8 5-7 12 1 23 25 33 98 102 109 102 5 0 10 6 10 13 0 9 13 14 35 15 49 2 57 9 53 44-2 19 2 33 10 35 9 4 11-3 6-24l-6-28 30 32c16 17 33 29 37 25s6 5 3 20c-6 31 1 45 22 50 8 2 20 10 27 18 7 9 12 10 13 4 0-7 10-14 21-17 17-4 19-3 10 6-6 6-11 14-11 18 0 13 90 60 102 53 6-4 8-3 5 3-4 6 13 16 36 24s58 22 77 32c21 10 36 13 38 7 2-5 11-10 20-10 8 0 12 3 8 8-4 4 9 12 30 18 40 11 40 12 47 107 5 63 13 80 27 57 8-13 10-12 10 2 0 9-5 20-10 23-13 8-3 93 13 113 8 11 13 10 26-4 12-13 13-17 3-21zm3163-273c15 0 35-51 35-91 0-15 4-30 9-33 8-5 20-64 26-126 1-14 10-63 18-110 9-47 19-137 22-199 3-63 7-116 9-118 7-7 62-7 96 0 19 4 29 4 22 1-10-5-10-9-1-20 6-8 10-15 8-15-7-2-52-7-89-10-33-2-78-29-49-29 9 0 10-3 3-10-5-5-7-31-4-57 5-46 6-48 33-45 18 2 26-1 22-7-3-6-2-11 4-11 5 0 14 7 19 15 5 11 29 17 74 20 36 2 69 5 74 6 21 4 35-2 29-11-3-5-2-10 4-10 5 0 11 5 13 12 3 8 11 7 28-5 15-11 33-14 54-10 28 6 30 5 17-10-12-15-11-17 7-17 11 0 22 5 24 11 3 9 11 8 28-2 14-7 28-12 33-11 4 1 7-3 7-8 0-6-5-10-11-10-5 0-7-5-3-11 3-6 17-8 30-5 17 5 27 1 36-14 7-11 17-20 22-20 11 0 35-31 36-45 0-5-4-3-10 5-8 12-10 12-15-2-6-14-16-9-66 29-34 27-59 54-59 65 0 20-11 23-26 8-6-6-24-4-49 4-48 17-210 15-242-2-12-7-39-12-60-12-50 0-63-10-72-51-6-26-12-33-27-31-18 4-17 2 3-15l22-19-35-68c-19-38-34-76-34-85 0-10-11-27-25-39-30-26-39-28-31-6 4 10 1 14-6 12-7-3-15-15-16-29-2-13-9-30-15-38-9-12-9-13 1-7 7 4 12 1 12-9 0-9 5-13 10-10 6 3 10 15 10 25 0 11 9 24 21 30 18 10 18 8-5-29-15-22-26-47-26-55 0-7-7-19-15-26s-15-18-15-25-6-15-14-18c-7-3-23-25-35-49-23-44-70-95-83-90-5 1-7-1-6-5 0-5-2-16-7-27-7-17-9-17-21 5l-12 24-11-28c-6-16-15-26-20-23-15 10-34-22-29-49 4-17 0-26-11-30-9-3-24-18-33-33-10-16-36-42-58-57-34-24-43-26-51-14-6 10-9 7-9-13 0-16-4-28-10-28-5 0-10 12-10 27 0 25-1 26-20 8-15-14-17-22-9-37 6-11 9-21 7-21-2-1-14-11-27-22l-24-20 6 35c6 32 6 34-8 16-8-11-15-23-15-28 0-4-11-8-25-8-24 0-30-9-26-37 1-7-3-13-8-13-6 0-19-9-29-20-21-23-92-40-92-22 0 6 6 12 13 15 6 2 9 8 5 12-5 5-32-4-61-18-29-15-57-27-62-26-16 0-57 58-71 99-19 55-13 81 48 216 10 22-4 118-22 159-41 89-58 155-55 218 4 80 20 107 109 177 33 27 76 61 93 76 34 27 73 126 73 185 0 15 8 36 18 46 11 10 21 25 24 34 4 9 23 24 44 34 44 21 183 24 249 7 31-9 59-8 125 4 162 29 224 29 302-1 12-5 14 15 14 130-1 74-4 135-7 135-4 0-6 6-6 13 1 6-5 39-12 72-10 46-11 63-1 78 6 11 7 16 2 13-10-6-32 66-32 103 0 14 5 19 15 15 8-4 15-1 15 5s-5 11-11 11c-5 0-7 6-3 13 6 9 4 9-8-1-14-11-17-8-23 30-4 24-14 63-22 87-9 27-12 53-7 70 8 25 8 24 12-11 2-23 8-38 17-38zm-3711-225c-4-8-8-15-10-15s-4 7-4 15 4 15 10 15c5 0 7-7 4-15zm-84-75c0-5-5-10-11-10-5 0-7 5-4 10 3 6 8 10 11 10 2 0 4-4 4-10zm2256-377c-4-4-11-1-16 7-16 25-11 35 7 17 9-9 13-20 9-24zm1954 5c0-4 5-8 11-8 5 0 8 4 5 9s13 4 37-1c23-6 49-11 58-12 8 0 16-8 16-17 2-20-38-34-48-17-5 7-45 11-117 10-110-2-135 5-114 31 11 13 152 18 152 5zm226-45c11-10 31-25 46-33 37-22 93-73 114-105 14-21 15-28 4-35-7-4-9-13-5-20 5-9 4-11-4-6-17 11-41 62-33 71 4 4 0 5-8 4-8-2-28 9-45 25-31 29-99 66-121 66-17 0-25 15-18 34 8 21 45 20 70-1zm199-215c9-38 20-47 55-48 60-2 172-106 195-182 14-48 19-183 8-201-4-7-9-16-10-22-17-70-30-108-50-149-12-28-23-56-23-63 0-19-58 12-83 43-10 13-23 24-29 24-5 0-28 16-51 35-22 19-45 35-50 35-14 0-117 94-117 108 0 6-5 12-11 12-5 0-24 29-40 65-27 60-28 69-18 113 7 26 20 57 31 68 10 12 20 31 21 43 1 11 6 21 12 21 5 1 35 13 65 28 45 22 55 31 52 50-2 15 2 22 13 22s15 5 11 15c-3 8-1 15 4 15 4 0 12-15 15-32zm-2268-208c7 0 13-4 13-10 0-5-6-10-14-10s-18-4-21-10c-3-5 0-7 8-4s18 1 22-5c3-6-1-11-9-11-9 0-16-4-16-10 0-5 6-10 13-10 9 0 13-11 12-32-2-43-15-88-25-88-11 0-21 66-18 115 1 22 2 60 2 85 0 41 1 43 10 18 5-16 16-28 23-28zm-2679 2c1-20 3-48 5-61 1-14-4-26-13-28-11-3-12-2-2 4 9 7 8 14-7 29-22 24-39 70-22 60 6-4 11-1 11 8 0 8 6 17 13 19l12 6c0 1 1-16 3-37zm15-125c6-17-4-77-13-77s-30 55-30 81c0 12 6 16 19 12 11-3 22-10 24-16zm14-64c-4-3-7 0-7 7s3 10 7 7c3-4 3-10 0-14zm2616-30c-4-10-2-14 4-10 19 12 18-64-2-103-8-16-15-43-15-59 0-19-7-35-18-42-12-8-17-20-14-38 2-14-3-34-11-45-11-15-17-16-34-8-17 10-22 8-26-8-6-24 2-60 14-60 5 0 3-11-3-25s-15-25-20-25c-4 0-8-6-8-12-1-7-11-26-24-42-17-20-29-26-43-22-17 5-19 2-15-24 3-18 0-30-7-30-6 0-11-4-11-10 0-16 30-12 36 5 4 11 16 13 42 9 21-3 41-10 47-15 5-5 35-9 67-9s58-4 58-10c0-5 16-10 35-10 25 0 37-6 46-22 10-19 13-20 23-6 12 16 49 16 91-2 11-4 34-13 52-20s35-21 38-31c7-21 22-24 45-9 12 8 12 10 1 10-8 0-12 3-9 6 4 3 16 0 29-6 17-10 31-9 63 1 23 7 45 16 51 21 15 13 28 9 21-7-3-8-1-15 3-15 5 0 12 7 15 16 5 12 9 14 20 5 7-6 22-8 32-4 17 6 17 5 5-10-7-9-23-17-35-17-11 0-34-7-51-16-19-10-31-11-33-5s-8 11-13 11c-4 0-6-7-3-15 8-20-23-20-42 0-12 12-18 12-29 2s-8-14 13-26c20-11 35-12 64-4 30 8 40 7 49-4 7-7 34-26 61-41 33-18 47-32 45-43-3-12 1-15 14-12 14 4 16 1 12-15-5-23-46-35-62-19-8 8-11 7-11-2 0-7-10-11-22-10-13 2-34-3-47-10-18-10-29-10-48-2-13 6-36 11-51 11s-34 4-42 10c-12 8-12 10 4 16 13 5 14 9 5 14-17 11-39 1-33-15 4-10-15-15-78-20-46-4-87-6-93-4-5 2-39 0-75-5-126-14-146-16-230-22-122-8-128-8-134-15-3-3-6-50-7-105 0-54-5-107-11-117-6-13-6-23 3-33 8-10 9-21 0-41-6-16-10-44-9-63 3-48-12-149-23-156-5-3-9-15-9-28 0-24-17-46-37-46-30 0-133 149-218 315-25 49-52 97-60 105-8 9-15 22-15 28 0 7-4 20-9 30-5 9-14 29-20 45-7 17-18 27-32 27-12 0-23 8-26 20-3 11-7 20-10 20-10 0-32-28-26-33 7-8-33-16-72-15-16 0-92-7-168-16-133-16-164-15-152 5 4 5 1 9-5 9-7 0-10-7-6-15 4-11-1-15-18-15-12 0-26-3-30-7-11-11-46-14-46-3 0 6-12 5-30-2l-30-13-4-160c-2-88-7-171-11-185-3-14-10-50-15-81-14-78-46-149-69-149-25 0-92 54-116 94-11 18-41 60-67 92-27 32-48 66-48 74s-10 26-23 40-29 45-36 70-17 61-22 80c-6 19-12 43-13 53-3 25-22 35-53 29-23-4-25-2-20 17 3 11 1 21-4 21-8 0-13-15-10-32 0-4-6-5-14-2-18 7-19 18-2 32s137 20 137 6c0-5 6-19 14-30 14-18 16-18 44-1 17 9 37 14 46 11s16-2 16 4c0 5-8 13-17 17-16 6-16 7-2 15s46 13 179 25c25 2 45 5 45 5 0 1 25 3 55 5 88 5 263 24 268 30 3 2 0 11-6 18-11 13-14 33-30 194-10 94 17 281 54 379 16 41 32 74 37 74 4 0 15 16 23 36s24 38 34 41c11 3 22 14 25 24 5 16 95 65 180 98 131 52 401 44 519-14 16-8 34-15 39-15 13 0 81-45 115-74 23-21 24-21 38-2 8 11 14 37 14 57 0 21 5 41 10 44 6 3 10 17 10 30s5 27 10 30c6 3 10 17 10 31s4 23 10 19c5-3 6-13 3-22zm-2633-8c0-8-4-15-10-15-5 0-7 7-4 15 4 8 8 15 10 15s4-7 4-15zm40-19c0-3-5-8-12-12s-8-3-4 4c7 12 16 16 16 8zm20-44c0-9 12-41 25-71 14-30 24-60 21-67-3-8-1-16 5-19 5-4 7-10 4-15-9-14-45 12-45 32 0 9-5 20-10 23-6 4-9 12-8 18 1 7-4 22-11 35-8 16-9 27-2 36 6 6 7 23 4 36-4 16-3 21 5 16 7-4 12-15 12-24zm71-196c-10-12-8-16 8-21 12-3 21-13 21-21s4-13 9-9c5 3 12-4 16-15 3-11 11-20 16-20s9-6 9-14 16-26 35-42c19-15 37-35 40-44 5-16 30-46 107-127 29-30 33-63 9-63-6 0-8 7-5 15 5 11 2 13-10 9-19-7-96 71-96 97 0 9-11 20-24 23-14 3-27 14-30 24-3 9-26 44-51 77-69 92-81 119-64 138s26 13 10-7zm3679-11c-7-9-15-13-17-11-7 7 7 26 19 26 6 0 6-6-2-15zm-1250-59c0-3-4-8-10-11-5-3-10-1-10 4 0 6 5 11 10 11 6 0 10-2 10-4zm-1385-81c9-42 6-108-5-119-6-6-10-16-10-24 0-29-63-101-106-122-68-31-102-27-181 26-52 34-75 57-94 92-13 26-30 54-37 63-10 13-10 21 2 44 18 34 33 45 67 45 29 0 44-15 82-82 30-52 85-81 112-58 21 18 42 64 50 110 13 80 104 99 120 25zm2118-205c-7-25-19-34-28-20-6 10 14 39 27 40 3 0 4-9 1-20zm-2751-93c15-15 32-27 38-27s10-10 8-22c-2-19-12-25-58-33-30-5-62-14-70-20-21-14-39-17-93-17-42 0-46-2-31-13 17-12 16-13-5-20-13-4-37-8-53-9s-35-11-44-24c-8-12-20-22-26-22-5 0-22-9-38-20-15-11-31-16-35-12s-18-6-31-23c-21-27-26-29-45-17-16 10-24 10-35 1-8-6-14-9-14-5 0 11 64 65 78 66 7 0 36 17 65 37 42 30 61 37 100 37 44 0 62 9 35 19-7 2 11 10 40 17 28 8 52 17 52 22 0 4 7 8 15 8s15-7 15-15c0-13 3-13 20-3 12 8 15 15 9 19-15 9-1 15 44 18 24 2 37-2 37-10 0-7 3-10 6-6 7 7-27 67-38 67-4 0-24 16-45 37-21 20-30 31-20 23s17-8 17-2-4 13-10 17c-5 3-7 12-3 21 5 14 34-7 115-89zm2415 56c-4-3-10-3-14 0-3 4 0 7 7 7s10-3 7-7zM6820 749c0-5-4-9-8-9-5 0-35-24-66-54-55-51-58-56-52-88 6-34 6-35-26-30-32 4-58 25-58 46 0 6 4 5 8-2 11-16 62 1 62 21 0 22-12 28-28 14-13-10-14-9-8 1 4 7 19 17 32 22s23 13 22 18c-2 4 8 22 22 39 20 25 32 31 63 31 20 0 37-4 37-9zm888-16c-5-6-16-9-24-6-22 8-17 18 10 18 18 0 22-3 14-12zm-218-18c-10-12-10-15 1-15 25-1-24-23-56-26-16-1-47-5-67-9-25-4-38-3-38 4 0 6-4 11-10 11-5 0-10-6-10-14 0-13-66-26-137-26-37 0-40 7-17 36 15 18 15 18 9-3-4-14-2-23 4-23s11 7 11 15c0 18 33 27 105 29 30 0 55 5 55 9s29 7 66 6c38-1 70 3 77 10 16 16 22 14 7-4zm-395-55c4-6-6-10-22-11-15 0-22-3-15-6 25-10-1-23-48-23-30 0-54-6-64-15-17-17-36-20-36-5 0 6-8 5-20-2-15-10-26-10-53 0-18 7-42 13-53 13-24 2 62 17 141 25 79 7 77 7 100-1 19-6 19-6 2 8-18 15-17 16 15 20 18 2 36 5 40 5 4 1 10-2 13-8zm-345-50c0-5-5-10-11-10-5 0-7 5-4 10 3 6 8 10 11 10 2 0 4-4 4-10zm37-37c-4-3-10-3-14 0-3 4 0 7 7 7s10-3 7-7z"/><path d="M10126 3955c4-8 10-12 15-9 14 8 10 24-6 24-9 0-12-6-9-15zM9030 4080c0-5 7-7 15-4 8 4 15 8 15 10s-7 4-15 4-15-4-15-10zM9070 4070c0-5 5-10 11-10 5 0 7 5 4 10-3 6-8 10-11 10-2 0-4-4-4-10zM8890 3935c0-14 4-25 9-25 12 0 19 21 13 38-8 21-22 13-22-13zM9307 3701c3-12 9-21 14-21 14 0 11 16-5 29-12 10-13 8-9-8zM7935 3921c-6-11 9-23 19-14 9 9 7 23-3 23-6 0-12-4-16-9zM8240 3620c0-5 5-10 10-10 6 0 10 5 10 10 0 6-4 10-10 10-5 0-10-4-10-10zM10783 3273c4-3 10-3 14 0 3 4 0 7-7 7s-10-3-7-7zM9753 3643c4-3 10-3 14 0 3 4 0 7-7 7s-10-3-7-7zM9713 3633c4-3 10-3 14 0 3 4 0 7-7 7s-10-3-7-7zM9550 3620c-9-6-10-10-3-10 6 0 15 5 18 10 8 12 4 12-15 0zM8165 3170c3-5 8-10 11-10 2 0 4 5 4 10 0 6-5 10-11 10-5 0-7-4-4-10zM8380 3150c0-7 3-10 7-7 3 4 3 10 0 14-4 3-7 0-7-7zM7913 3143c4-3 10-3 14 0 3 4 0 7-7 7s-10-3-7-7zM8288 3138c9-9 15-9 24 0s7 12-12 12-21-3-12-12zM7697 3126c-4-10-1-13 8-9 8 3 12 9 9 14-7 12-11 11-17-5zM7770 3126c0-9 8-12 27-8 25 5 25 6 8 13-29 11-35 10-35-5zM7345 3000c-21-23-9-26 18-6 10 8 14 17 9 20s-17-3-27-14zM8870 2969c0-16 4-19 18-14 9 4 23 8 29 8 21 1-7 27-28 27-13 0-19-7-19-21zM8965 2930c10-11 20-20 22-20s-2 9-9 20-17 20-22 20-1-9 9-20zM8904 2928c-4-7-3-8 4-4s12 9 12 12c0 8-9 4-16-8zM9043 2843c9-2 17-13 17-24 0-10 5-19 10-19 6 0 10 5 10 11 0 8 5 7 15-1 13-11 13-15 3-21-8-6-9-9-2-9 6 0 17 7 24 15 10 12 6 18-22 35-18 11-42 19-53 19-17-1-17-2-2-6zM7033 2773c4-3 10-3 14 0 3 4 0 7-7 7s-10-3-7-7zM9134 2758c-4-7-3-8 4-4s12 9 12 12c0 8-9 4-16-8zM9154 2738c3-7 9-21 12-30 9-27 20-22 19 9 0 19-6 29-19 31-12 3-16 0-12-10zM9255 2620c-3-5 1-10 9-10 9 0 16 5 16 10 0 6-4 10-9 10-6 0-13-4-16-10zM9343 2396c2-6 12-10 21-8s20-7 26-20c5-13 9-16 9-8s-3 21-8 29c-11 17-53 23-48 7zM9415 2180c3-5 8-10 11-10 2 0 4 5 4 10 0 6-5 10-11 10-5 0-7-4-4-10zM10903 2933c4-3 10-3 14 0 3 4 0 7-7 7s-10-3-7-7zM11000 2420c0-7 3-10 7-7 3 4 3 10 0 14-4 3-7 0-7-7zM10925 2200c3-5 8-10 11-10s2 5-1 10c-3 6-8 10-11 10s-2-4 1-10zM10840 1964c0-8 5-12 10-9 6 3 10 10 10 16 0 5-4 9-10 9-5 0-10-7-10-16zM10830 1930c0-5 7-7 15-4 8 4 15 8 15 10s-7 4-15 4-15-4-15-10zM10766 1811c-4-7-5-15-2-18 9-9 19 4 14 18-4 11-6 11-12 0zM10647 1633c-13-13-7-25 7-14 10 8 16 9 21 1 7-11 25-4 25 11 0 10-43 12-53 2zM11503 2363c4-3 10-3 14 0 3 4 0 7-7 7s-10-3-7-7zM9393 1703c4-3 10-3 14 0 3 4 0 7-7 7s-10-3-7-7zM9209 1293c-13-15-12-15 9-4 23 12 28 21 13 21-5 0-15-7-22-17zM9218 1183c7-3 16-2 19 1 4 3-2 6-13 5-11 0-14-3-6-6zM9430 1156c0-2 7-6 15-10 8-3 15-1 15 4 0 6-7 10-15 10s-15-2-15-4zM9473 1153c4-3 10-3 14 0 3 4 0 7-7 7s-10-3-7-7zM9578 921c-11-4-14-11-9-19s15-10 30-4c18 6 20 10 9 19-7 6-21 8-30 4zM9943 923c4-3 10-3 14 0 3 4 0 7-7 7s-10-3-7-7zM9813 903c4-3 10-3 14 0 3 4 0 7-7 7s-10-3-7-7zM9007 883c-31-8-7-23 36-22 26 1 33 3 18 6-19 4-21 7-10 14s9 8-6 8c-11-1-28-3-38-6zM8945 870c27-12 43-12 25 0-8 5-22 9-30 9-10 0-8-3 5-9zM8805 840c-3-5-1-10 4-10 6 0 11 5 11 10 0 6-2 10-4 10-3 0-8-4-11-10zM8910 840c0-7 3-10 7-7 3 4 3 10 0 14-4 3-7 0-7-7zM8705 811c-3-5-1-12 5-16 5-3 10 1 10 9 0 18-6 21-15 7zM7795 740c3-5 18-10 32-10 32 0 28 5-10 14-19 4-26 3-22-4zM7935 740c3-5 10-10 16-10 5 0 9 5 9 10 0 6-7 10-16 10-8 0-12-4-9-10zM7870 730c0-5 5-10 11-10 5 0 7 5 4 10-3 6-8 10-11 10-2 0-4-4-4-10zM6940 1406c0-2 7-9 15-16 9-7 15-8 15-2 0 5-7 12-15 16-8 3-15 4-15 2zM7078 1223c7-3 16-2 19 1 4 3-2 6-13 5-11 0-14-3-6-6zM7230 670c0-5 7-7 15-4 8 4 15 8 15 10s-7 4-15 4-15-4-15-10zM6843 603c4-3 10-3 14 0 3 4 0 7-7 7s-10-3-7-7z"/></g><g fill="#f9dbe7"><path d="M0 2145V0h12000v4290H0V2145zm10319 1996c20-10 56-28 81-39s52-28 61-38c33-38 89-124 89-136 0-16 62-142 73-146 4-2 7-9 7-15s9-29 19-51c27-59 46-105 61-151 7-22 25-67 40-100 82-182 138-329 154-405 9-41 21-91 27-110 11-36 13-48 24-135 3-27 10-66 14-85 5-19 10-62 11-95s3-73 4-90c1-16 3-45 4-63l2-32 68 6c126 12 244 8 332-11 14-3 41-8 60-12 39-6 152-76 189-116 13-14 40-58 60-99 29-58 42-74 61-76 33-4 100-33 100-44 0-4 17-24 39-43 93-84 99-260 16-450-8-16-17-42-20-58-4-15-11-30-16-33-11-6-65 22-76 39-9 14-78 65-128 94-42 25-138 122-170 173-37 59-40 122-8 186 23 47 23 50 7 82-10 18-31 41-48 52-17 10-40 27-51 37-45 42-232 69-299 43-16-6-48-11-71-12-57-1-71-15-80-78-4-30-20-82-36-115s-29-65-29-72c0-8-4-21-9-31-6-9-16-30-24-47-25-56-80-150-107-185-15-19-29-40-31-47-6-17-98-122-138-158-19-16-53-48-75-71-132-133-351-265-536-324-41-13-77-25-79-27-10-7 36-45 73-62 57-26 86-60 75-89-4-12-18-23-29-24s-35-3-52-5c-18-2-71-3-118-2-228 4-279 3-470-15-74-7-146-13-160-14-45-1-89-7-94-13-3-3-6-48-7-100 0-52-5-102-11-112-6-13-6-23 3-33 8-10 9-21 0-41-6-16-10-44-9-63 3-48-12-149-23-156-5-3-9-15-9-28 0-24-17-46-37-46-30 0-133 149-218 315-25 49-52 97-60 105-8 9-15 24-15 33s-4 19-10 22c-5 3-10 14-10 24 0 22-35 55-49 46-6-3-50-8-99-11-48-2-107-7-132-10-97-11-126-15-150-18-14-2-71-7-127-11l-103-7-1-92c0-112-7-223-14-256-3-14-10-50-15-81-14-78-46-149-69-149-25 0-92 54-116 94-11 18-41 60-67 92-27 32-48 66-48 74s-11 27-25 42-25 32-25 37c0 6-6 30-14 53-7 24-19 63-27 87l-13 43-71-7c-38-4-87-9-107-11-20-1-78-9-130-17-51-8-104-15-118-16-64-2-227-27-245-38-11-6-31-11-45-11-14 1-56-4-95-10-211-34-247 3-124 126 39 40 73 72 75 72s24 16 50 35c25 19 52 35 59 35s15 4 17 8c5 12 94 62 110 62 8 0 45 16 83 35 39 19 88 37 110 41 21 3 47 10 57 15 17 9 17 11 2 34-9 14-20 25-25 25-11 0-189 179-189 191 0 5-4 9-8 9-10 0-192 274-192 290 0 5-4 18-9 28-43 85-71 154-71 174 0 12-7 36-15 52-8 15-15 46-15 67s-5 41-10 44c-6 4-10 18-10 33 1 15-1 65-4 112-10 162 30 347 101 462 13 21 23 44 23 53 0 8 9 20 20 27s20 17 20 23c0 11 136 166 156 178 7 4 38 32 69 62s62 55 70 55 22 11 30 24c9 13 41 36 72 50 30 15 72 38 91 51 20 14 46 25 57 25s32 6 47 14 52 20 82 27c70 15 79 22 83 56 1 15 7 55 13 88s14 80 19 105c4 25 20 80 34 123 15 42 27 82 27 87s18 46 40 91 40 88 40 95 14 29 30 47c17 19 30 40 30 46 0 16 70 103 111 138 19 16 54 36 79 44 55 17 165 15 195-5 27-18 45-82 44-156-2-88 7-225 15-239 6-9 28-11 85-7 42 4 111 9 153 11 42 3 111 10 154 15 43 6 79 8 82 5 2-2 17 2 33 11 26 13 29 19 29 68 0 50 37 218 61 276 17 43 59 82 97 91 43 10 116 2 153-17 29-15 119-128 119-149 0-8 6-18 13-22 14-9 67-135 67-161 0-9 9-28 20-42s20-32 20-41c0-40 21-41 265-14 22 3 63 7 92 10 28 3 81 11 117 19 35 7 104 14 153 15 52 1 90 7 94 13 7 11 5 91-7 264-3 44-1 92 5 106 12 32 79 68 113 61 15-3 34 0 45 6 23 14 20 14 62-8z"/><path d="M10217 3902l-58-3 5-84c2-46 7-89 11-95 12-19-15-70-37-70-11 0-28-5-39-10-13-8-25-7-39 0-11 6-26 7-33 3-6-4-34-8-62-9-27 0-93-8-145-17-225-38-408-47-456-22-25 13-73 94-74 125 0 8-8 31-19 50-10 19-24 52-30 73-10 28-17 36-30 32-9-3-79-7-155-10-77-2-142-8-147-12-4-4-10-51-14-103-9-135-18-146-126-154-35-3-84-8-109-11s-79-8-120-10c-41-3-118-9-170-15-128-14-136-11-144 46-3 26-6 77-6 114s-3 81-6 97l-6 30h-102c-57 1-117 4-134 7-23 6-35 3-47-11-26-28-85-126-85-140 0-7-4-13-10-13-5 0-10-7-10-16s-7-28-15-42c-8-15-25-56-38-92-47-129-51-146-64-258-3-29-9-55-14-58s-9-19-9-35v-30l53 6c28 3 68 9 87 12 63 11 83 13 266 19 122 4 205 2 250-6 38-7 80-13 94-14s32-5 40-8 51-13 95-22c43-9 87-23 95-31 9-8 24-15 32-15 9 0 45-15 81-34 84-45 99-47 104-17 2 14 10 38 18 54 8 17 15 38 15 47 0 10 20 39 45 66 25 26 45 50 46 53 1 15 154 131 172 132 52 3 118-18 133-42 3-6 16-15 27-20 12-5 33-16 45-23 23-13 127-14 197-2 102 18 231-2 297-46 14-10 34-18 45-18 10 0 30-8 44-18 132-87 154-108 180-166l19-45-21-57c-12-32-32-67-45-78-12-12-45-41-73-65-28-25-51-50-51-57 0-6-6-17-14-23-8-7-17-28-20-49-4-20-11-48-15-62-5-14-14-45-22-70-7-25-16-49-21-55-4-5-8-20-8-35 0-14-8-37-18-51-52-79-68-99-79-99-7 0-16-6-20-14-4-7-28-23-51-35-39-20-57-22-150-19l-107 3 2-50c5-160 4-365-2-374-3-6-8-37-11-69-2-31-11-77-18-102-8-25-14-52-13-60 0-18-56-167-85-225-30-59-31-60-62-100-29-36-29-37-10-48 10-6 26-12 34-13s38-7 65-12c28-6 82-16 120-22 39-7 79-16 90-20 11-5 38-11 60-15 22-3 56-12 75-19 86-33 104-36 147-23 23 7 45 16 49 20s17 7 28 7c12 0 28 4 36 10 12 8 12 11-2 27-51 56-57 142-15 232 27 58 29 71 23 130-4 36-13 75-20 86s-17 35-21 53c-3 18-13 45-21 61-19 39-12 159 12 198 27 42 139 143 160 143 29 0 79 107 89 191 7 52 55 113 104 133 38 14 196 20 216 8 22-15 133-9 208 9 82 21 157 20 214-2 30-11 40-10 34 6-2 6-5 57-8 115s-6 119-6 135c-1 17-5 35-10 42-4 6-9 38-11 70-3 33-9 79-15 104-5 24-15 71-21 104-15 75-55 199-79 245-10 19-22 48-25 64-4 17-15 41-25 55-9 14-32 73-51 131s-41 114-51 125c-9 11-22 38-29 60s-28 69-46 103c-19 35-34 70-34 78 0 24-43 65-60 58-8-4-35-6-60-4-109 5-128 5-183 2z"/><path d="M9100 2589c-70-14-161-29-200-34-19-2-60-9-90-14-30-6-72-13-92-15s-41-7-46-10c-11-7-131-18-217-21-33-1-118-8-190-15-71-6-148-14-170-16s-62-6-90-9c-27-3-94-9-148-15-54-5-102-12-107-15s-60-12-122-20-122-16-133-18c-45-10-104-17-173-22-40-2-77-7-81-9-7-4-282-18-396-20l-59-1-8-35c-22-102-26-313-8-377 6-18 15-48 20-66 6-18 10-42 10-53s4-24 8-29c5-6 17-37 27-70 16-54 108-242 124-255 3-3 13-18 21-35 8-16 29-46 47-65s50-57 72-85c22-27 46-57 54-65 16-19 116-104 174-149 64-50 56-79-27-95-19-4-44-11-55-16s-45-16-75-26c-48-14-78-26-150-58-8-3-27-14-42-24-15-9-64-39-109-66-108-63-207-162-151-150 38 8 189 34 222 38 19 2 60 9 90 14 90 16 213 33 255 36 22 2 47 6 55 9s46 8 84 12c38 3 74 9 80 13s40 8 75 9c35 2 69 8 76 13 7 6 15 6 23-2 9-9 17-9 34 0 13 6 67 14 122 17 54 3 102 8 107 11s42 7 82 9c39 2 72 4 72 5 0 2 57 8 134 14 70 5 79 9 63 29-7 8-10 16-7 18 2 3-2 38-8 79-7 41-12 113-11 160 2 74 7 113 31 243 3 16 21 57 39 90 19 34 41 77 49 95 8 17 20 32 26 32s25 14 42 32c18 17 57 42 87 55s64 29 74 35c60 33 322 51 401 27 145-42 194-63 278-121 35-24 48-15 51 38 1 22 5 46 8 54 4 8 13 44 20 80 19 84 18 421-1 500-16 67-83 240-114 295-21 37-26 40-67 42-25 1-65-3-90-8zM7915 1388c16-7 25-19 25-34 0-13 5-26 11-30 28-17-26-167-78-217-59-56-143-62-217-15-72 47-93 69-126 132-26 52-27 58-14 85 18 37 32 47 66 49 24 1 33-7 68-67 33-56 47-70 77-79 42-13 58-5 76 38 12 30 14 36 15 77 2 24 10 36 35 51 17 11 33 21 34 21 1 1 14-4 28-11zM11101 2399c-57-5-105-10-107-12-1-1-5-31-8-65-5-57-4-63 12-58 195 55 366 31 491-69 25-20 52-48 62-64l17-29 44 22c40 19 43 24 39 54-4 37-80 128-127 152-16 8-36 20-44 27-9 7-35 15-58 18-24 3-51 9-60 14-29 15-150 20-261 10z"/></g><g fill="#fff"><path d="M0 2145V0h12000v4290H0V2145zm10339 1992c9-8 35-19 58-27 22-7 51-22 62-34 31-31 101-135 101-150 0-7 18-46 40-86s40-79 40-86 16-43 35-80 35-75 35-86c0-10 4-26 9-36 24-43 71-150 71-158 0-6 9-29 20-52 11-22 20-46 20-51 0-6 16-41 35-78s35-77 35-89c0-11 4-34 9-50s15-56 22-89 15-64 18-70c3-5 7-19 8-30 7-74 12-113 17-135 9-33 16-113 15-170 0-24 3-61 6-81l7-38 66 5c123 7 260 5 299-5 21-6 53-13 72-16 18-3 45-13 60-21 14-8 47-27 72-42 26-15 63-47 83-72s41-50 46-57c6-7 9-16 8-20s6-25 15-45c13-32 21-38 45-38 16 0 35-7 42-15s16-15 21-15 33-24 63-52c65-65 86-120 86-228 0-42-3-80-7-84s-8-13-8-19c-1-22-27-102-47-143-10-22-20-47-21-55-6-34-17-39-50-22-18 9-43 27-57 40-42 41-111 93-124 93-21 0-150 133-170 175-10 22-22 48-27 57-12 23 8 115 32 149 17 24 17 27 1 51-21 31-96 89-148 114-32 16-61 19-164 18-75-1-143-7-170-16-43-13-45-15-56-68-11-55-52-171-79-223-8-16-15-33-15-38s-18-38-40-73-40-67-40-71-13-24-30-45c-16-21-30-42-30-46 0-5-25-36-55-69s-55-63-55-66c0-4-22-24-50-45-27-21-50-43-50-49 0-5-22-26-48-45s-56-42-67-52c-47-40-115-87-151-104-21-9-48-25-59-33-44-36-268-126-286-115-5 3-9-1-9-8 0-13 9-19 75-51 48-23 78-62 71-90-6-27-55-51-81-40-9 3-21 1-28-5-13-10-94-9-172 4-56 9-78 9-187 0-42-4-103-9-135-11-32-3-76-7-98-9s-80-7-129-10c-49-4-91-8-93-9-2-2-3-48-4-103-1-54-5-107-10-116-6-11-5-19 2-24 6-3 8-16 4-28-4-11-8-39-9-61-5-82-18-165-27-171-5-3-9-15-9-28 0-12-11-33-24-45l-23-22-50 56c-28 31-59 73-69 93s-26 46-35 57-38 61-64 110c-26 50-56 104-66 120-9 17-18 35-20 40-1 6-5 19-10 30-4 11-10 28-13 38-5 15-12 17-37 12-17-4-61-8-98-10-36-1-111-7-166-13s-136-14-181-17-94-9-110-14c-16-4-33-6-39-4s-10-44-11-124c-1-135-13-290-24-300l-5-10c-1-5-4-15-7-23s-11-34-18-57c-7-24-21-50-31-59-16-14-21-13-68 18-32 21-58 48-71 74-11 23-30 50-41 60-26 24-79 101-79 116 0 6-7 19-16 29-18 20-76 175-75 203 0 21-5 21-244-9-71-9-148-18-170-20-51-4-217-30-315-48-118-23-235-31-258-18-30 16-36 46-16 78 37 60 206 203 239 203 9 0 18 7 21 15 4 8 12 15 19 15s23 9 37 19c14 11 46 25 72 32 25 6 49 15 52 20 8 13 95 49 134 55 63 10 68 19 31 51-42 36-201 194-201 200 0 2-9 14-21 26s-32 40-46 62-42 65-63 95c-21 31-50 82-65 115s-38 85-52 115c-26 56-53 145-57 190-2 14-6 34-9 45-23 78-28 227-11 335 22 134 27 154 61 230 48 108 65 137 104 181 21 24 39 46 39 49 0 5 36 41 172 174 37 37 73 66 82 66 8 0 20 8 25 18s32 30 58 43 55 30 64 37c27 21 92 52 110 52 9 0 33 7 53 15s37 15 38 14c2 0 16 4 31 10 16 6 34 11 41 11 20 0 39 28 32 46-3 9-3 21 1 27 5 7 9 23 10 37 2 14 3 32 4 40s5 20 9 25c4 6 11 35 14 67 4 31 16 80 28 110 11 29 22 61 23 70 7 34 58 138 67 138 6 0 8 7 5 15-4 8-2 17 3 20 6 4 10 15 10 25s11 31 23 47c13 15 30 40 38 54 27 50 91 129 105 129 7 0 18 9 24 20s23 23 38 26c15 4 32 10 37 14 23 16 147 15 182-2 40-19 55-60 59-152 2-45 3-85 4-91v-55c-1-25 2-60 6-79l7-33 91 6c50 4 123 9 161 12 39 2 90 7 115 10s64 7 88 9c56 5 69 17 65 57-1 18 3 58 9 88 7 30 13 62 13 70 1 8 7 35 15 60 7 25 15 53 17 64 6 33 65 91 106 103 22 6 63 9 95 6 52-6 61-11 107-58 27-28 59-69 70-90 11-22 26-44 33-48 6-4 12-21 12-37s5-32 10-35c13-8 40-72 40-95 0-10 5-20 10-22 6-2 17-21 25-43 15-45 23-47 140-33 33 4 96 10 140 13 44 4 109 13 145 21 62 13 190 26 257 25l32-1-5 118c-2 64-7 142-9 172-9 95 25 135 130 151 60 8 103 3 124-14z"/><path d="M10455 3900c-4-7-49-9-134-6-70 2-133 1-138-2-12-7-11-115 1-169 6-24 2-36-16-58-22-25-32-28-99-31-103-4-164-11-261-28-46-8-103-15-126-15-24-1-48-3-52-6-5-3-60-8-122-11-126-7-170 5-183 48-4 13-13 30-20 38s-16 28-19 45c-4 16-18 54-32 83-13 29-24 58-24 65 0 9-29 12-117 9-65-2-137-6-159-9l-41-5-7-101c-4-55-11-108-17-118-12-24-58-36-159-44-46-3-88-9-94-12-5-4-48-7-95-9-47-1-102-5-121-7-102-14-189-17-195-6-4 6-9 70-10 141-2 72-8 135-13 140s-69 11-142 11c-123 2-134 1-144-18-6-11-21-36-33-56-13-19-23-43-23-52 0-10-7-20-15-23-8-4-15-14-15-23s-8-29-18-46c-23-38-62-146-62-172 0-10-5-24-11-30s-12-27-14-47-9-52-15-71-8-39-5-45c4-6-1-27-10-46-9-20-15-38-12-40 2-3 40 0 83 6 161 23 235 30 349 31 65 0 234-10 255-16 25-7 69-16 145-30 50-9 118-30 153-46 34-16 66-29 70-29 5 0 35-14 68-30l59-31 6 34c3 18 13 44 22 57 9 14 17 32 17 42s46 64 103 121c84 85 110 105 148 116 39 11 54 11 85 0 22-8 41-17 44-20 7-9 69-46 100-60 17-7 55-9 120-3 162 13 234 9 311-16 39-13 73-30 76-37s14-13 25-13c12 0 43-13 70-30 26-16 50-30 53-30 2 0 22-18 44-39 41-40 71-97 71-135 0-26-56-146-68-146-16 0-109-94-125-125-25-51-35-78-47-129-6-27-20-67-30-88-10-22-17-45-14-52 15-39-88-165-170-209-36-19-55-21-150-20l-109 2 8-102c5-56 7-124 6-152-8-144-10-174-16-225-3-30-11-73-18-95-6-22-12-53-13-70 0-16-11-50-23-74-11-25-21-50-21-55 0-6-18-45-39-86-59-116-69-132-83-141-17-11-5-21 32-25 18-2 36-7 42-10 6-4 27-8 47-10s47-6 61-9 75-16 135-29c99-22 134-32 201-56 20-8 106 9 120 23 4 4 20 7 36 7 18 0 28 5 28 15 0 8-4 15-10 15-5 0-17 17-26 38-22 51-14 143 17 207 22 45 24 57 17 119-5 38-12 74-17 80-4 6-11 24-15 41-4 16-16 49-27 73-17 36-19 55-13 110 6 58 12 74 48 118 22 28 57 62 76 75s39 29 43 36 12 13 17 13c14 0 50 33 50 45 0 5 7 23 15 39 9 16 20 58 25 93 10 72 36 107 102 138 43 20 206 29 225 13 7-6 21-8 32-5 10 2 26 0 35-5s22-6 29-1c6 4 32 9 57 10 25 2 58 8 74 13 42 14 125 12 180-4 43-13 46-13 42 2-3 10-7 75-10 146s-10 134-15 140c-6 6-12 41-15 76-13 166-78 399-152 539-14 28-27 56-28 63s-7 22-13 33-14 36-18 55-12 40-17 47c-5 6-10 22-12 35-1 13-12 39-24 58s-22 38-22 42c0 3-25 58-54 121-56 116-78 147-91 127z"/><path d="M9129 2586c-4-5-167-33-234-41-22-2-51-7-65-10-14-2-47-7-75-10-27-3-66-10-85-15-41-10-192-28-235-27-30 0-169-10-260-19-27-3-72-7-100-9-70-6-204-24-305-40-94-15-230-30-244-27-4 2-14-2-20-7-7-6-53-13-102-16s-100-7-114-10c-38-8-132-15-263-20-65-2-122-7-126-10-5-3-19-1-31 3-12 5-34 6-49 4-25-3-29-10-40-65-25-121-26-288-2-249 6 9 15 10 39 1 18-6 40-8 50-4 33 15 52 11 84-15 18-15 38-25 45-23 24 9 82-38 105-85 13-26 27-50 32-53 4-4 3-10-4-14-9-6-9-10 1-17 11-8 11-11 1-15s-10-8-1-19 9-14-1-14c-7 0-10-8-7-20 3-11 1-20-4-20s-9-7-9-15-3-14-7-14c-22 4-33-3-33-20 0-28-45-54-70-41-12 6-20 7-20 1 0-5 6-12 13-14 12-5-43-11-75-8-9 1-19-2-22-7-6-11 62-152 74-152 4 0 10-10 14-22 6-27 23-49 90-121 27-28 56-64 65-78 17-28 76-81 170-154 50-37 61-52 61-75 0-34-2-35-71-54-149-42-337-119-354-145-3-6-14-11-24-11s-24-7-32-16c-7-8-29-24-50-34-34-18-119-92-119-104 0-11 51-6 85 8 18 8 35 13 37 11s51 3 108 11c58 9 121 18 140 20s71 10 115 18c43 8 85 12 92 9s21-2 31 3c9 4 26 8 37 9s56 7 100 14 100 14 125 15 52 5 60 9c8 3 26 6 40 6 34-1 228 19 249 25 9 3 45 8 81 11 36 2 81 7 100 11 19 3 64 6 100 7l65 2-4 35c-2 19-5 42-5 50-1 9-5 21-10 28-11 19 2 299 18 364 7 32 11 60 8 63s1 13 9 22c22 28 39 61 39 78 0 9 7 18 15 21s20 21 27 40c6 19 16 34 20 34 5 0 23 15 41 33 89 87 267 141 438 133 142-7 228-26 284-63 11-7 28-13 38-13s38-16 61-35c48-39 65-43 68-17 4 45 8 70 17 106 5 22 8 43 5 47-2 4 0 10 4 13 5 3 7 17 5 31-4 20-8 23-24 15-12-7-20-7-24 0-5 8-11 7-21-1-8-6-14-7-14-2s-19 10-42 10c-55 0-98 11-122 32-15 12-20 13-23 3-4-9-14-6-36 11-18 13-40 26-49 30-10 3-18 16-18 27s-3 20-8 20c-4 0-15 15-23 33-32 65-6 169 58 235 11 12 16 12 30 0 9-7 14-8 10-2-4 7 3 15 16 19 32 10 39 12 67 14 20 1 22 3 10 11-11 7-1 10 35 11 28 1 54 1 59 0s13 4 17 11c7 11 9 10 9-1 0-10 9-12 36-6 26 4 40 2 46-7 7-9 8-7 3 7-4 11-9 29-10 40-10 71-96 270-121 279-18 7-89 8-95 2zM7933 1382c9-10 19-43 23-75 6-48 3-64-19-111-62-131-178-178-277-112-22 14-46 26-55 26-8 0-15 7-15 15s-8 19-18 24-27 29-37 53-25 50-33 60c-12 14-10 22 12 57 23 36 31 41 65 41 35 0 40-4 64-47 14-27 35-58 46-70 20-22 73-39 89-29 9 5 34 81 46 138 9 42 80 62 109 30zM11074 2389c-33-3-65-8-71-12-5-3-11-28-12-54l-1-49 42 4c24 2 49 9 56 15 14 11 81 12 186 2 102-9 255-96 284-161l11-23 39 19c39 19 40 20 32 57-10 44-99 132-165 162-92 42-231 56-401 40z"/></g><text transform="translate(323.8637 852.2727)" style="line-height:1.25;white-space:pre;shape-inside:url(#a)" font-weight="400" font-size="320" font-family="sans-serif" fill="#5c5162"><tspan x="187.5" y="1150.2266"><tspan></tspan><tspan></tspan></tspan></text><text style="line-height:1.25;white-space:pre;shape-inside:url(#b)" font-weight="400" font-size="173.333" font-family="sans-serif" fill="#5c5162"><tspan x="758.5234" y="2284.2614"><tspan></tspan><tspan></tspan><tspan></tspan><tspan></tspan><tspan dx="0 0 0 -0.00010681152"></tspan><tspan dx=".0001"></tspan><tspan dx="-.0001"></tspan><tspan></tspan><tspan dx="0 0 0 0 0 0 -0.00022888184 -0.00022888184 -0.00022888184 -0.00022888184 -0.00022888184 -0.00022888184"></tspan></tspan></text></svg>